<svg width="138" height="137" viewBox="0 0 138 137" fill="none" xmlns="http://www.w3.org/2000/svg">
<ellipse cx="69" cy="68.5" rx="69" ry="68.5" fill="#5E1C1D"/>
<path d="M48.8754 91.6845L29 97.1238L34.5651 77.6977L70.9592 42.2989C71.3704 41.8877 71.862 41.561 72.404 41.3379C72.9463 41.1149 73.5289 41 74.1172 41C74.7055 41 75.2881 41.1149 75.8305 41.3379C76.3724 41.561 76.864 41.8877 77.2752 42.2989L85.0929 49.983C85.5067 50.3843 85.8353 50.8618 86.0597 51.3878C86.2841 51.9139 86.3994 52.4781 86.3994 53.048C86.3994 53.6179 86.2841 54.1822 86.0597 54.7082C85.8353 55.2343 85.5067 55.7117 85.0929 56.113L48.8754 91.6845Z" fill="white" stroke="white" stroke-width="1.27554" stroke-linecap="round" stroke-linejoin="round"/>
<path d="M30.5759 97.1034L53.1681 99.1546L63.7417 96.8888L76.3197 97.798L87.1551 96.8888L98.4839 99.1546L109.813 99.9099" stroke="white" stroke-width="1.51051"/>
</svg>
