<svg width="86" height="91" viewBox="0 0 86 91" fill="none" xmlns="http://www.w3.org/2000/svg">
<path d="M47.658 30.7504L52.388 40.7604C53.033 42.1254 54.753 43.4904 56.1864 43.7179L64.7506 45.2345C70.2331 46.2204 71.523 50.3912 67.5813 54.5621L60.9164 61.6146C59.8056 62.79 59.1605 65.1029 59.5188 66.7712L61.4181 75.53C62.9231 82.4308 59.4473 85.1229 53.6781 81.5208L45.6514 76.4779C44.1822 75.5679 41.8173 75.5679 40.3481 76.4779L32.3213 81.5208C26.5522 85.1229 23.0763 82.4308 24.5813 75.53L26.4806 66.7712C26.8389 65.1408 26.1939 62.8279 25.083 61.6146L18.4181 54.5621C14.4764 50.3912 15.7664 46.1825 21.2489 45.2345L29.8131 43.7179C31.2464 43.4525 32.9664 42.1254 33.6114 40.7604L38.3414 30.7504C40.8856 25.3283 45.1138 25.3283 47.658 30.7504Z" stroke="#F5F0E6" stroke-width="1.5" stroke-linecap="round" stroke-linejoin="round"/>
<path d="M21.5 34.125V7.58337" stroke="#F5F0E6" stroke-width="1.5" stroke-linecap="round" stroke-linejoin="round"/>
<path d="M64.5 34.125V7.58337" stroke="#F5F0E6" stroke-width="1.5" stroke-linecap="round" stroke-linejoin="round"/>
<path d="M43 15.1667V7.58337" stroke="#F5F0E6" stroke-width="1.5" stroke-linecap="round" stroke-linejoin="round"/>
</svg>
