<?xml version="1.0" encoding="UTF-8"?>
<svg version="1.1" xmlns="http://www.w3.org/2000/svg" width="512" height="512">
<path d="M0 0 C5.4521357 2.53134872 6.4759981 4.71399714 10 10 C10 22.54 10 35.08 10 48 C73.36 48 136.72 48 202 48 C202 35.46 202 22.92 202 10 C207.17241379 2.24137931 207.17241379 2.24137931 212 0 C217.5997712 -0.75381535 222.33499991 -0.77303575 227.5 1.625 C231.42010914 5.34910368 234.18301022 8.64349647 234.45410156 14.16943359 C234.45347514 15.7459101 234.43128271 17.32248524 234.390625 18.8984375 C234.38496521 19.73339752 234.37930542 20.56835754 234.37347412 21.42861938 C234.35120223 24.07801266 234.30102523 26.72602016 234.25 29.375 C234.22992302 31.17836579 234.21167435 32.98175292 234.1953125 34.78515625 C234.15136786 39.19063269 234.08240601 43.59508194 234 48 C234.69998108 47.99111755 235.39996216 47.98223511 236.12115479 47.9730835 C242.76903473 47.89240763 249.41677493 47.83176961 256.06503677 47.79275131 C259.48172407 47.77201599 262.89800158 47.74396238 266.31445312 47.69824219 C270.25645777 47.64582853 274.19830569 47.62693864 278.140625 47.609375 C279.95074066 47.57840729 279.95074066 47.57840729 281.79742432 47.54681396 C296.34178036 47.54302683 307.16923358 52.49577141 317.75 62.3125 C327.9357714 73.0748245 330.45839997 85.02694774 330.38768005 99.42208862 C330.3918601 100.75860672 330.39734129 102.09512126 330.40399987 103.4316293 C330.41838536 107.08005002 330.41423154 110.72824352 330.40683305 114.37667632 C330.40208648 118.3208918 330.41462437 122.26505917 330.42485046 126.20925903 C330.44201483 133.92695284 330.44288337 141.64456515 330.43763756 149.36227308 C330.43359014 155.6376839 330.4350462 161.9130707 330.44038582 168.18848038 C330.44113424 169.08287784 330.44188266 169.97727531 330.44265376 170.89877573 C330.4441853 172.71595962 330.44572365 174.53314351 330.44726873 176.35032739 C330.46098528 193.37773868 330.45556208 210.40510397 330.44408352 227.43251421 C330.4341525 242.99521313 330.44709104 258.55779314 330.47101771 274.12047373 C330.49542575 290.11731617 330.50501236 306.11410326 330.49836498 322.11096394 C330.49487649 331.08514879 330.49708035 340.05924221 330.51461601 349.03341293 C330.52935933 356.67303749 330.52994568 364.31250623 330.5125451 371.9521278 C330.50405012 375.84634391 330.50184845 379.74028194 330.51719666 383.63448334 C330.53109908 387.20620991 330.52621035 390.77742163 330.50695742 394.34911884 C330.501454 396.23860594 330.51542255 398.12811962 330.53031152 400.01755607 C330.40682799 414.44089414 325.42509508 425.25452606 315.6875 435.75 C304.32136861 446.50723149 291.87771863 448.45496849 276.75564575 448.38768005 C275.22113782 448.39185836 273.68663298 448.39733859 272.15213382 448.40399987 C267.95644706 448.4184081 263.76095751 448.41422428 259.56526017 448.40683305 C255.03208481 448.4020922 250.49895155 448.41461935 245.96578979 448.42485046 C237.09305246 448.4420259 228.22038599 448.44288107 219.34763636 448.43763756 C212.13401137 448.43359225 204.92040729 448.43504371 197.70678329 448.44038582 C196.16536108 448.44150845 196.16536108 448.44150845 194.59279903 448.44265376 C192.50503914 448.44418528 190.41727926 448.44572363 188.32951938 448.44726873 C168.7612242 448.46098926 149.19296904 448.45555925 129.62467478 448.44408352 C111.73403229 448.43415189 93.84349323 448.44709141 75.95286669 448.47101771 C57.56943966 448.49541727 39.1860608 448.50501445 20.80261791 448.49836498 C10.48704513 448.49487464 0.17155188 448.49709266 -10.14400864 448.51461601 C-18.92547774 448.52934869 -27.7068113 448.52995948 -36.48827778 448.5125451 C-40.96575795 448.50404149 -45.4429961 448.5018699 -49.92046356 448.51719666 C-54.02508868 448.53107282 -58.12926509 448.52624327 -62.23386444 448.50695742 C-63.71290659 448.50320605 -65.19198493 448.50609436 -66.67099474 448.51656907 C-82.5714461 448.6211073 -94.06970973 444.52435574 -105.75 433.6875 C-115.9357714 422.9251755 -118.45839997 410.97305226 -118.38768005 396.57791138 C-118.3918601 395.24139328 -118.39734129 393.90487874 -118.40399987 392.5683707 C-118.41838536 388.91994998 -118.41423154 385.27175648 -118.40683305 381.62332368 C-118.40208648 377.6791082 -118.41462437 373.73494083 -118.42485046 369.79074097 C-118.44201483 362.07304716 -118.44288337 354.35543485 -118.43763756 346.63772692 C-118.43359014 340.3623161 -118.4350462 334.0869293 -118.44038582 327.81151962 C-118.44113424 326.91712216 -118.44188266 326.02272469 -118.44265376 325.10122427 C-118.4441853 323.28404038 -118.44572365 321.46685649 -118.44726873 319.64967261 C-118.46098528 302.62226132 -118.45556208 285.59489603 -118.44408352 268.56748579 C-118.4341525 253.00478687 -118.44709104 237.44220686 -118.47101771 221.87952627 C-118.49542575 205.88268383 -118.50501236 189.88589674 -118.49836498 173.88903606 C-118.49487649 164.91485121 -118.49708035 155.94075779 -118.51461601 146.96658707 C-118.52935933 139.32696251 -118.52994568 131.68749377 -118.5125451 124.0478722 C-118.50405012 120.15365609 -118.50184845 116.25971806 -118.51719666 112.36551666 C-118.53109908 108.79379009 -118.52621035 105.22257837 -118.50695742 101.65088116 C-118.501454 99.76139406 -118.51542255 97.87188038 -118.53031152 95.98244393 C-118.40682799 81.55910586 -113.42509508 70.74547394 -103.6875 60.25 C-92.8300315 49.9741816 -80.85415155 47.5223265 -66.3359375 47.70703125 C-65.06271637 47.71127609 -63.78949524 47.71552094 -62.47769165 47.71989441 C-59.12710905 47.73375085 -55.77716479 47.76060259 -52.42675781 47.79400635 C-48.99419609 47.82494597 -45.56156785 47.83845025 -42.12890625 47.85351562 C-35.41909773 47.88644913 -28.70958563 47.93654637 -22 48 C-22.0314209 46.32043213 -22.0314209 46.32043213 -22.06347656 44.60693359 C-22.13610426 40.43616623 -22.18188211 36.26545432 -22.21972656 32.09423828 C-22.23979033 30.29205919 -22.26704813 28.48994479 -22.30175781 26.68798828 C-22.35050829 24.09130864 -22.37302082 21.49549271 -22.390625 18.8984375 C-22.41127014 18.0982016 -22.43191528 17.2979657 -22.45318604 16.47348022 C-22.45529705 11.16083853 -21.48340331 8.23577375 -18 4 C-12.72867143 -1.00776214 -6.89190982 -0.92775709 0 0 Z M-81.9375 85.75 C-89.89875095 98.29500149 -86 113.76385947 -86 128 C40.72 128 167.44 128 298 128 C300.3471951 105.37422926 300.3471951 105.37422926 292.25 84.0625 C285.31855827 79.66370044 278.80468397 79.72335139 270.81640625 79.8046875 C269.23314796 79.80893234 269.23314796 79.80893234 267.61790466 79.81326294 C264.26598496 79.82440585 260.91433816 79.84949976 257.5625 79.875 C255.28190492 79.8850374 253.00130562 79.89416192 250.72070312 79.90234375 C245.14704322 79.92432588 239.57354111 79.95774463 234 80 C233.98598145 80.95253662 233.98598145 80.95253662 233.97167969 81.92431641 C233.91771267 84.825308 233.83411873 87.72473244 233.75 90.625 C233.73582031 91.62402344 233.72164063 92.62304688 233.70703125 93.65234375 C233.50648031 99.70898213 233.03465694 103.38420999 229 108 C223.77740143 112.05630398 218.34659858 111.77397544 212 111 C206.93805921 108.60223857 205.97785351 106.96308918 203 102 C202.67 94.74 202.34 87.48 202 80 C138.64 80 75.28 80 10 80 C9.67 87.26 9.34 94.52 9 102 C4.24385102 109.13422347 4.24385102 109.13422347 0 111 C-5.54808604 111.82885269 -10.47140883 111.7240695 -15.5625 109.3125 C-20.6670698 104.46970301 -21.37081672 100.58042915 -21.61914062 93.74023438 C-21.64169922 92.73283203 -21.66425781 91.72542969 -21.6875 90.6875 C-21.72166016 89.66076172 -21.75582031 88.63402344 -21.79101562 87.57617188 C-21.87323409 85.05089037 -21.94246936 82.5259446 -22 80 C-28.6710674 79.92355617 -35.34202063 79.87123558 -42.01342773 79.83520508 C-44.28007224 79.82017492 -46.54668794 79.79974518 -48.81323242 79.77368164 C-52.08259213 79.73704412 -55.35156527 79.7202154 -58.62109375 79.70703125 C-59.62458359 79.69154739 -60.62807343 79.67606354 -61.66197205 79.66011047 C-68.89879316 79.6584029 -76.75725685 80.08836146 -81.9375 85.75 Z M-86 160 C-86.061875 199.414375 -86.12375 238.82875 -86.1875 279.4375 C-86.21481201 291.88525146 -86.24212402 304.33300293 -86.27026367 317.15795898 C-86.28029663 328.31061429 -86.28029663 328.31061429 -86.28633118 339.46327209 C-86.28912746 344.43291741 -86.30037534 349.4024667 -86.31672668 354.37208557 C-86.3373117 360.71247058 -86.34347198 367.05271605 -86.33921683 373.39313138 C-86.34010655 375.71922369 -86.3460508 378.04532091 -86.35764539 380.3713845 C-86.37259383 383.51655925 -86.36896042 386.66119375 -86.36076355 389.80638123 C-86.36950154 390.71373048 -86.37823954 391.62107973 -86.38724232 392.55592442 C-86.34368013 398.78614336 -85.76088744 405.55094337 -81.72504205 410.59274954 C-74.41453833 417.25751092 -65.08504377 416.28787894 -55.85549927 416.26069641 C-54.40394039 416.26371876 -52.9523831 416.26760866 -51.50082862 416.27228898 C-47.52063807 416.28256697 -43.54053762 416.28038766 -39.56033969 416.27610838 C-35.26439872 416.2736408 -30.96847942 416.28265573 -26.67254639 416.29014587 C-18.25962729 416.30289402 -9.84674012 416.30468642 -1.43381299 416.30234561 C5.40471509 416.30056241 12.24323348 416.30231213 19.08176041 416.30657005 C20.05514063 416.30716524 21.02852085 416.30776043 22.03139744 416.30837366 C24.00883912 416.30958541 25.9862808 416.31079954 27.96372248 416.31201603 C46.5075394 416.32289203 65.05133814 416.3207288 83.59515609 416.31463119 C100.55681933 416.30946205 117.51842513 416.32071728 134.48007701 416.33972941 C151.89948868 416.35910484 169.31887316 416.36736432 186.73829567 416.36360615 C196.51669017 416.36169365 206.29503578 416.36418645 216.07342148 416.37832069 C224.39792245 416.3902317 232.72234444 416.39164252 241.04684649 416.37953053 C245.29302018 416.37363987 249.53904939 416.37254758 253.78521347 416.38453293 C257.67508663 416.39538489 261.56469457 416.39229663 265.45455529 416.37827124 C266.85893821 416.37562242 268.26334187 416.37799672 269.66770445 416.38600711 C281.8088555 416.65415141 281.8088555 416.65415141 292.57632434 411.72509462 C298.32353456 405.49689122 298.29127194 398.0044491 298.24050903 390.04689026 C298.24222107 389.06322479 298.24393311 388.07955933 298.24569702 387.06608582 C298.24900018 383.76867362 298.23797204 380.47146581 298.22705078 377.17407227 C298.22643798 374.77026596 298.22670533 372.3664593 298.2277813 369.96265316 C298.22823265 363.52781344 298.21664436 357.09304817 298.20256042 350.65822601 C298.19116712 344.61911282 298.19063399 338.58001769 298.18920898 332.54089355 C298.17871605 314.88141918 298.15079373 297.22195865 298.125 279.5625 C298.08375 240.106875 298.0425 200.65125 298 160 C171.28 160 44.56 160 -86 160 Z " fill="#FAF8F4" transform="translate(150,32)"/>
<path d="M0 0 C8.49114089 5.41012422 12.89444068 12.29666646 16.83984375 21.3671875 C17.21472931 22.21742996 17.58961487 23.06767242 17.9758606 23.94367981 C19.5359526 27.50359229 21.08478175 31.06340274 22.53930664 34.66796875 C26.21206648 44.70018072 26.21206648 44.70018072 33.35601807 52.137146 C37.59517001 53.61260941 41.86448421 53.86348268 46.32327271 53.97528076 C49.74460686 54.11237013 53.02900898 54.70705335 56.40625 55.2734375 C60.22748772 55.86071789 64.04788336 56.44435427 67.875 56.9921875 C78.45140342 58.65294506 86.26404351 61.47148143 93.05859375 69.984375 C97.86644449 76.91601889 98.63921428 84.62249948 97.93191528 93.00358582 C96.20604175 101.23072119 91.04153031 107.14143417 84.9765625 112.58203125 C83.52869784 113.94724316 82.0821203 115.3138212 80.63671875 116.68164062 C78.37906524 118.790473 76.11248869 120.88632172 73.82177734 122.95922852 C64.91408248 130.48350963 64.91408248 130.48350963 59.65893555 140.45605469 C59.87644315 143.86653236 60.55562562 146.78116987 61.5 150.0625 C61.91484468 152.46836758 62.31144159 154.87744027 62.69140625 157.2890625 C63.37005072 161.00291977 64.06729958 164.71278045 64.77148438 168.421875 C67.02972208 180.8257229 68.255475 191.3605882 61.02734375 202.2890625 C55.9070402 208.7529918 49.17953064 212.72827086 41 214 C32.18847259 214.40971908 24.73478585 211.61972723 17.0625 207.5625 C16.21357178 207.12832764 15.36464355 206.69415527 14.48999023 206.24682617 C10.00945157 203.94393099 5.5740246 201.56537428 1.15625 199.14453125 C0.30087646 198.68046875 -0.55449707 198.21640625 -1.43579102 197.73828125 C-3.0713924 196.84697666 -4.69990664 195.94250864 -6.32006836 195.0234375 C-7.42813843 194.41822266 -7.42813843 194.41822266 -8.55859375 193.80078125 C-9.20111084 193.44024658 -9.84362793 193.07971191 -10.50561523 192.70825195 C-15.17505343 191.19635772 -19.24967456 193.77991329 -23.35005188 195.86888123 C-24.45488167 196.44232018 -24.45488167 196.44232018 -25.58203125 197.02734375 C-27.16987902 197.83537069 -28.75777104 198.64331066 -30.34570312 199.45117188 C-32.82855219 200.72360444 -35.30999344 201.99870905 -37.7902832 203.27612305 C-40.19654769 204.51265235 -42.607758 205.73910227 -45.01953125 206.96484375 C-46.115252 207.53524635 -46.115252 207.53524635 -47.23310852 208.11717224 C-55.56913504 212.34430224 -63.221176 214.03974244 -72.5 212.0625 C-80.2626972 209.33537168 -86.53397664 204.97360099 -90.81640625 197.8828125 C-96.6632436 185.45573659 -92.91734555 170.88845364 -90.5 158 C-90.06814064 155.64965133 -89.63983438 153.29873539 -89.21606445 150.94691467 C-88.95428391 149.49903509 -88.68749307 148.052049 -88.41479492 146.60618591 C-87.42924346 141.3608275 -87.42924346 141.3608275 -87.5 136.0625 C-89.5859086 133.76708967 -91.60379101 131.82573691 -93.9375 129.8125 C-95.31083455 128.57539971 -96.68183289 127.33570222 -98.05078125 126.09375 C-98.77475098 125.44148438 -99.4987207 124.78921875 -100.24462891 124.1171875 C-104.11390812 120.5921979 -107.88283974 116.97164654 -111.625 113.3125 C-112.33454834 112.64057617 -113.04409668 111.96865234 -113.77514648 111.27636719 C-120.86696961 104.30391222 -125.11102622 96.7538392 -125.5625 86.72265625 C-125.34913942 77.64149658 -122.18532882 70.67744834 -115.6796875 64.26953125 C-106.91297472 57.08224648 -95.45857425 56.23531694 -84.60375977 54.69995117 C-82.30530662 54.37397982 -80.00913162 54.03453055 -77.71289062 53.69335938 C-76.23188614 53.47837082 -74.75076979 53.26415118 -73.26953125 53.05078125 C-72.5933223 52.95082352 -71.91711334 52.85086578 -71.22041321 52.74787903 C-66.95008991 52.15191422 -62.80874606 51.97421031 -58.5 52.0625 C-58.12415771 50.83055908 -58.12415771 50.83055908 -57.74072266 49.57373047 C-56.30823802 45.51981585 -54.53796362 41.73977404 -52.6484375 37.8828125 C-52.27071198 37.11121796 -51.89298645 36.33962341 -51.5038147 35.54464722 C-50.70430722 33.91807721 -49.90236885 32.29270006 -49.09814453 30.66845703 C-48.28622767 29.02161089 -47.48146181 27.37121885 -46.68408203 25.71728516 C-35.8081307 3.15992313 -35.8081307 3.15992313 -24.24609375 -1.30859375 C-16.38870263 -3.10808162 -7.45368349 -3.31786839 0 0 Z M-15.5 37.0625 C-15.9940332 38.09656982 -16.48806641 39.13063965 -16.99707031 40.19604492 C-18.83932507 44.04767416 -20.69011663 47.89514942 -22.54345703 51.74145508 C-23.34297766 53.40375262 -24.14020802 55.06715381 -24.93505859 56.73168945 C-26.08084059 59.13008794 -27.23491897 61.52433954 -28.390625 63.91796875 C-28.74183411 64.6577446 -29.09304321 65.39752045 -29.45489502 66.15971375 C-33.00300559 73.46719698 -37.00364821 78.6474953 -44.5 82.0625 C-57.87427578 86.30360515 -72.65226085 87.17783681 -86.5 89.0625 C-86.82096833 92.1172485 -86.82096833 92.1172485 -84.8125 94.078125 C-83.6678125 95.18414062 -83.6678125 95.18414062 -82.5 96.3125 C-81.2625 97.51132812 -81.2625 97.51132812 -80 98.734375 C-77.2373948 101.30705109 -74.40570877 103.78177904 -71.546875 106.24609375 C-63.26185385 113.59825946 -55.52274045 120.6114342 -54.12890625 132.12890625 C-53.92081354 143.08437547 -55.76769892 153.57062339 -57.80883789 164.29711914 C-58.03821045 165.51520264 -58.26758301 166.73328613 -58.50390625 167.98828125 C-58.71861572 169.08567627 -58.9333252 170.18307129 -59.15454102 171.3137207 C-59.71173376 174.14739357 -59.71173376 174.14739357 -58.5 177.0625 C-57.79504395 176.69487549 -57.09008789 176.32725098 -56.36376953 175.94848633 C-53.11795999 174.25646522 -49.87148463 172.56572542 -46.625 170.875 C-45.51640625 170.29685547 -44.4078125 169.71871094 -43.265625 169.12304688 C-21.7366115 157.91529573 -21.7366115 157.91529573 -14.4375 157.75 C-12.84228516 157.69392578 -12.84228516 157.69392578 -11.21484375 157.63671875 C-2.73464098 158.60868731 4.98240442 163.16485163 12.5 167 C13.325 167.41701172 14.15 167.83402344 15 168.26367188 C16.65439597 169.09991734 18.30805438 169.93762374 19.9609375 170.77685547 C24.13217658 172.88894634 28.31612881 174.9755717 32.5 177.0625 C32.31824219 175.98355469 32.13648438 174.90460938 31.94921875 173.79296875 C31.27177238 169.76100422 30.60290616 165.72765419 29.93652344 161.69384766 C29.64782 159.95355365 29.35684118 158.21363543 29.06347656 156.47412109 C28.64038034 153.96288673 28.22568934 151.45038107 27.8125 148.9375 C27.68125732 148.16946045 27.55001465 147.4014209 27.41479492 146.61010742 C26.37734046 140.21769014 25.55468839 133.67311915 27.75 127.4375 C27.98203125 126.74398437 28.2140625 126.05046875 28.453125 125.3359375 C31.23904427 119.28591878 35.53081944 114.64346551 40.0625 109.875 C40.97926514 108.9013147 40.97926514 108.9013147 41.91455078 107.90795898 C47.33183136 102.18017402 52.87404132 96.58512475 58.5 91.0625 C58.17 90.4025 57.84 89.7425 57.5 89.0625 C55.0275875 88.57414586 52.63001632 88.21162335 50.1328125 87.9140625 C48.59112736 87.71107779 47.04946133 87.50794781 45.5078125 87.3046875 C43.08186199 86.99596558 40.65547953 86.69127578 38.22851562 86.390625 C12.97825752 83.2265366 12.97825752 83.2265366 5.5 75.0625 C3.27658504 71.55278128 1.40874712 67.90679071 -0.4375 64.1875 C-0.95602539 63.16841553 -1.47455078 62.14933105 -2.00878906 61.09936523 C-6.01847425 53.17066928 -9.86297327 45.16897154 -13.5 37.0625 C-14.16 37.0625 -14.82 37.0625 -15.5 37.0625 Z " fill="#FAF8F4" transform="translate(270.5,209.9375)"/>
</svg>
