<svg width="42" height="42" viewBox="0 0 42 42" fill="none" xmlns="http://www.w3.org/2000/svg">
<path d="M42 21C42 32.598 32.598 42 21 42C9.40202 42 0 32.598 0 21C0 9.40202 9.40202 0 21 0C32.598 0 42 9.40202 42 21Z" fill="#5E1C1D"/>
<path d="M39 21C39 11.0589 30.9411 3 21 3C11.0589 3 3 11.0589 3 21C3 30.9411 11.0589 39 21 39V42C9.40202 42 0 32.598 0 21C0 9.40202 9.40202 0 21 0C32.598 0 42 9.40202 42 21C42 32.598 32.598 42 21 42V39C30.9411 39 39 30.9411 39 21Z" fill="#F5F0E6"/>
<path d="M22.4894 31.52C21.1294 31.52 19.8494 31.2534 18.6494 30.72C17.4494 30.1867 16.396 29.4667 15.4894 28.56C14.5827 27.6534 13.876 26.64 13.3694 25.52C12.8627 24.3734 12.6094 23.1867 12.6094 21.96C12.6094 20.7867 12.8494 19.64 13.3294 18.52C13.836 17.4 14.5294 16.3867 15.4094 15.48C16.2894 14.5734 17.3294 13.8534 18.5294 13.32C19.756 12.7867 21.0894 12.52 22.5294 12.52C23.8094 12.52 24.9827 12.7334 26.0494 13.16C27.116 13.5867 27.9694 14.1734 28.6094 14.92C29.2494 15.64 29.5694 16.48 29.5694 17.44C29.5694 18.3734 29.2627 19.1067 28.6494 19.64C28.0627 20.1467 27.316 20.4 26.4094 20.4C25.556 20.4 24.8627 20.16 24.3294 19.68C23.796 19.2 23.5294 18.56 23.5294 17.76C23.5294 17.2267 23.6227 16.8267 23.8094 16.56C24.0227 16.2934 24.2227 16.0534 24.4094 15.84C24.596 15.6267 24.6894 15.36 24.6894 15.04C24.6894 14.64 24.5027 14.3334 24.1294 14.12C23.7827 13.9067 23.3027 13.8 22.6894 13.8C21.916 13.8 21.236 14.0267 20.6494 14.48C20.0627 14.9334 19.6094 15.7867 19.2894 17.04C18.9694 18.2934 18.8094 20.1467 18.8094 22.6C18.8094 24.5734 18.9294 26.12 19.1694 27.24C19.436 28.3334 19.8627 29.0934 20.4494 29.52C21.0627 29.9467 21.8627 30.16 22.8494 30.16C24.2894 30.16 25.5027 29.76 26.4894 28.96C27.5027 28.16 28.3694 26.8667 29.0894 25.08H30.4094C29.876 27 28.9294 28.56 27.5694 29.76C26.236 30.9334 24.5427 31.52 22.4894 31.52Z" fill="#F5F0E6"/>
</svg>
