<svg width="34" height="44" viewBox="0 0 34 44" fill="none" xmlns="http://www.w3.org/2000/svg">
<circle cx="16.7089" cy="27.2911" r="16.7089" fill="white"/>
<path d="M17.9983 37.52C16.6383 37.52 15.3583 37.2533 14.1583 36.72C12.9583 36.1867 11.905 35.4667 10.9983 34.56C10.0916 33.6533 9.38495 32.64 8.87829 31.52C8.37162 30.3733 8.11829 29.1867 8.11829 27.96C8.11829 26.7867 8.35829 25.64 8.83829 24.52C9.34495 23.4 10.0383 22.3867 10.9183 21.48C11.7983 20.5733 12.8383 19.8533 14.0383 19.32C15.265 18.7867 16.5983 18.52 18.0383 18.52C19.3183 18.52 20.4916 18.7333 21.5583 19.16C22.625 19.5867 23.4783 20.1733 24.1183 20.92C24.7583 21.64 25.0783 22.48 25.0783 23.44C25.0783 24.3733 24.7716 25.1067 24.1583 25.64C23.5716 26.1467 22.825 26.4 21.9183 26.4C21.065 26.4 20.3716 26.16 19.8383 25.68C19.305 25.2 19.0383 24.56 19.0383 23.76C19.0383 23.2267 19.1316 22.8267 19.3183 22.56C19.5316 22.2933 19.7316 22.0533 19.9183 21.84C20.105 21.6267 20.1983 21.36 20.1983 21.04C20.1983 20.64 20.0116 20.3333 19.6383 20.12C19.2916 19.9067 18.8116 19.8 18.1983 19.8C17.425 19.8 16.745 20.0267 16.1583 20.48C15.5716 20.9333 15.1183 21.7867 14.7983 23.04C14.4783 24.2933 14.3183 26.1467 14.3183 28.6C14.3183 30.5733 14.4383 32.12 14.6783 33.24C14.945 34.3333 15.3716 35.0933 15.9583 35.52C16.5716 35.9467 17.3716 36.16 18.3583 36.16C19.7983 36.16 21.0116 35.76 21.9983 34.96C23.0116 34.16 23.8783 32.8667 24.5983 31.08H25.9183C25.385 33 24.4383 34.56 23.0783 35.76C21.745 36.9333 20.0516 37.52 17.9983 37.52Z" fill="#5E1C1D"/>
</svg>
