<svg width="41" height="42" viewBox="0 0 41 42" fill="none" xmlns="http://www.w3.org/2000/svg">
<path d="M15.7738 18.5819C15.9106 18.5814 16.0474 18.581 16.1884 18.5806C16.4078 18.581 16.4078 18.581 16.6316 18.5814C16.783 18.5813 16.9344 18.5811 17.0904 18.581C17.4101 18.5809 17.7297 18.5812 18.0493 18.5817C18.5388 18.5825 19.0283 18.5817 19.5178 18.5809C19.8285 18.581 20.1392 18.5811 20.4498 18.5814C20.5964 18.5811 20.7429 18.5808 20.8938 18.5806C21.0984 18.5812 21.0984 18.5812 21.3071 18.5819C21.4269 18.582 21.5466 18.5821 21.67 18.5822C21.9815 18.5988 22.2426 18.6313 22.5367 18.7352C22.7142 19.0902 22.6887 19.3503 22.6878 19.7479C22.6878 19.9028 22.6878 20.0577 22.6878 20.2173C22.6871 20.3852 22.6864 20.5531 22.6857 20.726C22.6855 20.8974 22.6853 21.0688 22.6851 21.2453C22.6845 21.7011 22.6832 22.1568 22.6817 22.6126C22.6803 23.0776 22.6797 23.5426 22.679 24.0076C22.6775 24.9201 22.6753 25.8326 22.6724 26.7451C21.8921 27.0809 21.1506 27.0537 20.3173 27.0479C20.1694 27.0479 20.0215 27.0478 19.8691 27.0478C19.5572 27.0473 19.2454 27.0463 18.9335 27.0446C18.4565 27.0421 17.9796 27.0418 17.5026 27.0418C17.1992 27.0412 16.8957 27.0404 16.5923 27.0395C16.4499 27.0393 16.3075 27.0392 16.1607 27.039C15.9609 27.0377 15.9609 27.0377 15.757 27.0364C15.6404 27.0359 15.5238 27.0353 15.4036 27.0348C15.0551 27.0159 14.7311 26.9574 14.391 26.8809C14.2533 26.0848 14.2354 25.312 14.2372 24.5051C14.237 24.37 14.2369 24.235 14.2368 24.0959C14.2367 23.8116 14.2369 23.5272 14.2375 23.2429C14.2382 22.8095 14.2375 22.376 14.2366 21.9426C14.2367 21.6654 14.2369 21.3882 14.2372 21.111C14.2369 20.9823 14.2366 20.8536 14.2363 20.721C14.2387 20.0444 14.2756 19.4022 14.391 18.7352C14.8601 18.6291 15.2932 18.5823 15.7738 18.5819Z" fill="white"/>
<path d="M14.5264 28.3743C17.1697 28.3743 19.813 28.3743 22.5363 28.3743C22.3793 32.1422 22.3793 32.1422 22.1969 33.5247C22.1793 33.6708 22.1616 33.8168 22.1434 33.9673C22.0128 35.0071 22.0128 35.0071 21.8575 35.1624C21.6492 35.175 21.4402 35.1783 21.2314 35.1778C21.0983 35.1778 20.9651 35.1777 20.8279 35.1777C20.6831 35.177 20.5383 35.1763 20.3891 35.1756C20.1679 35.1753 20.1679 35.1753 19.9422 35.175C19.4691 35.1743 18.996 35.1726 18.5229 35.1708C18.203 35.1702 17.8831 35.1695 17.5633 35.169C16.7772 35.1675 15.9912 35.1652 15.2052 35.1624C14.4699 33.0165 14.5264 30.6113 14.5264 28.3743Z" fill="white"/>
<path d="M24.166 18.7351C25.3631 18.8275 25.3631 18.8275 26.5843 18.9218C26.8329 18.9406 27.0816 18.9594 27.3378 18.9787C28.4659 19.0667 29.5748 19.1706 30.6826 19.4139C30.7905 20.5436 30.8329 21.6653 30.8353 22.7995C30.8359 22.9173 30.8365 23.0351 30.8372 23.1564C30.8348 24.2207 30.7612 25.2769 30.6826 26.3378C30.0165 26.4163 29.3503 26.4936 28.6839 26.5698C28.458 26.5958 28.2321 26.6221 28.0062 26.6488C27.6787 26.6874 27.351 26.7248 27.0234 26.762C26.9249 26.7739 26.8264 26.7858 26.7249 26.798C25.8571 26.8946 25.0566 26.8808 24.166 26.8808C24.166 24.1927 24.166 21.5046 24.166 18.7351Z" fill="white"/>
<path d="M12.8974 18.7351C12.8974 21.4232 12.8974 24.1113 12.8974 26.8808C11.9064 26.8808 10.9834 26.876 10.0104 26.762C9.91328 26.7513 9.81617 26.7407 9.71612 26.7297C9.36227 26.6905 9.00859 26.6498 8.65489 26.6093C7.85966 26.5197 7.06444 26.4301 6.24512 26.3378C6.24512 24.0529 6.24512 21.768 6.24512 19.4139C7.17186 19.2454 8.04752 19.0955 8.97838 19.0268C9.14197 19.0138 9.14197 19.0138 9.30887 19.0006C9.65084 18.9736 9.99288 18.9477 10.3349 18.9218C10.569 18.9035 10.803 18.8851 11.0371 18.8666C12.7151 18.7351 12.7151 18.7351 12.8974 18.7351Z" fill="white"/>
<path d="M21.9933 10.5896C22.0604 11.1126 22.1246 11.6359 22.1884 12.1593C22.2067 12.3015 22.225 12.4437 22.2438 12.5902C22.4312 14.1484 22.4674 15.6566 22.5363 17.2419C19.893 17.2419 17.2497 17.2419 14.5264 17.2419C14.5264 16.1111 14.552 15.0351 14.6452 13.9157C14.6558 13.7748 14.6665 13.634 14.6775 13.4888C14.7566 12.5117 14.8938 11.5538 15.0694 10.5896C17.3839 10.4107 19.6775 10.4909 21.9933 10.5896Z" fill="white"/>
<path d="M23.4873 10.7253C23.8743 10.727 24.2552 10.7386 24.6413 10.7593C24.7569 10.7653 24.8725 10.7714 24.9915 10.7776C25.965 10.8375 26.9051 10.9887 27.8614 11.1735C28.485 11.2888 29.1006 11.354 29.7324 11.4042C29.9359 11.9689 30.063 12.5031 30.1444 13.0975C30.1674 13.2645 30.1904 13.4315 30.2142 13.6036C30.2372 13.7766 30.2602 13.9496 30.2839 14.1279C30.3074 14.2972 30.331 14.4665 30.3552 14.641C30.5034 15.7325 30.6113 16.8215 30.6827 17.9207C28.9621 17.7935 27.2417 17.664 25.5237 17.5049C25.4039 17.4942 25.2841 17.4835 25.1606 17.4724C24.3343 17.3938 24.3343 17.3938 24.0304 17.2419C23.8548 16.7152 23.8619 16.2049 23.8437 15.6552C23.794 14.3905 23.6523 13.1472 23.4776 11.8941C23.4594 11.7613 23.4413 11.6285 23.4226 11.4917C23.4057 11.3731 23.3888 11.2546 23.3714 11.1325C23.3648 11.043 23.3583 10.9534 23.3516 10.8611C23.3964 10.8163 23.4412 10.7715 23.4873 10.7253Z" fill="white"/>
<path d="M6.38127 27.8312C7.45654 27.8036 8.48943 27.8846 9.5547 28.0263C10.7131 28.1773 11.868 28.2946 13.0336 28.3742C13.0404 28.4876 13.0472 28.6011 13.0542 28.7179C13.0804 29.1486 13.1073 29.5793 13.1347 30.0099C13.1519 30.284 13.1683 30.5581 13.1847 30.8322C13.2517 31.8785 13.3572 32.906 13.5226 33.9414C13.5716 34.3095 13.5869 34.6559 13.5766 35.0265C8.17335 34.5847 8.17335 34.5847 7.19584 34.0762C6.95551 33.4964 6.85951 32.9244 6.77901 32.3044C6.76734 32.215 6.75567 32.1257 6.74365 32.0336C6.7193 31.8455 6.69537 31.6574 6.67182 31.4692C6.63608 31.1848 6.59866 30.9008 6.56105 30.6167C6.4403 29.6831 6.34991 28.7731 6.38127 27.8312Z" fill="white"/>
<path d="M29.9953 27.8227C30.1253 27.8239 30.2554 27.8252 30.3893 27.8264C30.5345 27.8288 30.5345 27.8288 30.6826 27.8312C30.5455 29.2284 30.3917 30.6226 30.2074 32.0144C30.1914 32.1398 30.1753 32.2652 30.1587 32.3944C30.1426 32.5135 30.1265 32.6325 30.1098 32.7552C30.0959 32.8597 30.082 32.9641 30.0677 33.0717C29.9904 33.4656 29.8653 33.8337 29.7323 34.212C28.3116 34.5257 26.9122 34.7223 25.4642 34.8484C25.2708 34.866 25.0773 34.8838 24.8838 34.9017C24.4184 34.9444 23.9528 34.9859 23.4872 35.0266C23.3464 34.6041 23.3543 34.4482 23.4225 34.0216C23.4407 33.902 23.4588 33.7823 23.4775 33.6591C23.4975 33.5307 23.5175 33.4024 23.5381 33.2701C23.7103 32.1056 23.8161 30.9555 23.8549 29.7791C23.8716 29.2914 23.8995 28.8444 24.0303 28.3742C24.1528 28.3626 24.2753 28.351 24.4015 28.339C24.8598 28.2954 25.318 28.2516 25.7762 28.2077C25.9738 28.1888 26.1714 28.17 26.3691 28.1512C26.6545 28.1241 26.94 28.0967 27.2254 28.0693C27.3968 28.053 27.5681 28.0366 27.7447 28.0198C28.0809 27.9838 28.4165 27.9415 28.7512 27.8935C29.1732 27.8335 29.5696 27.8175 29.9953 27.8227Z" fill="white"/>
<path d="M13.5757 10.7253C13.5511 10.9361 13.5511 10.9361 13.5259 11.1512C13.4059 12.2158 13.3026 13.2785 13.2353 14.348C13.2241 14.5261 13.2128 14.7042 13.2013 14.8877C13.1795 15.2452 13.1588 15.6028 13.1394 15.9605C13.1294 16.1247 13.1194 16.2889 13.1091 16.4581C13.0967 16.6798 13.0967 16.6798 13.0841 16.906C13.0587 17.0723 13.0587 17.0723 13.0327 17.2419C12.6182 17.4492 12.174 17.44 11.718 17.4752C11.6135 17.4838 11.5089 17.4923 11.4012 17.5011C11.0655 17.5283 10.7296 17.5548 10.3938 17.5813C10.0632 17.6079 9.7325 17.6346 9.40185 17.6613C9.18805 17.6786 8.97424 17.6958 8.76043 17.7129C7.96656 17.7766 7.17327 17.8456 6.38037 17.9207C6.35422 16.9774 6.42419 16.0851 6.57553 15.1546C6.59382 15.0357 6.61211 14.9169 6.63095 14.7945C6.85532 13.3607 6.85532 13.3607 7.25434 13.0333C7.63054 12.7965 8.01365 12.6657 8.43377 12.5242C8.93163 12.3464 8.93163 12.3464 9.25576 11.9525C9.29252 11.8555 9.32927 11.7586 9.36713 11.6587C9.56767 11.1674 9.56767 11.1674 9.89533 11.0069C10.2645 10.9269 10.6192 10.8888 10.9963 10.8611C11.0849 10.854 11.1735 10.847 11.2648 10.8397C12.034 10.7795 12.8039 10.7253 13.5757 10.7253Z" fill="white"/>
<path d="M3.93709 6.24512C4.07149 6.24512 4.2059 6.24512 4.34437 6.24512C4.36432 6.33717 4.38427 6.42922 4.40483 6.52406C4.61445 7.39385 4.91069 8.07745 5.40236 8.82512C5.56623 9.09611 5.56623 9.09611 5.56623 9.36764C5.70063 9.41244 5.83504 9.45724 5.97351 9.5034C6.06312 9.6042 6.15272 9.705 6.24504 9.80886C6.75523 10.3506 7.47013 10.583 8.1457 10.861C8.1457 10.9954 8.1457 11.1298 8.1457 11.2683C8.03755 11.3078 7.92939 11.3474 7.81796 11.3882C6.92254 11.7346 6.33643 12.0438 5.70199 12.7617C5.61239 12.7617 5.52279 12.7617 5.43047 12.7617C5.41489 12.8396 5.39932 12.9174 5.38327 12.9977C5.28674 13.3323 5.1457 13.5769 4.96379 13.8732C4.60888 14.4907 4.46648 15.0491 4.34437 15.7484C4.20997 15.7484 4.07557 15.7484 3.93709 15.7484C3.90069 15.6286 3.86429 15.5087 3.82678 15.3852C3.28565 13.7279 2.54993 12.3796 0.950332 11.5398C0.636243 11.3886 0.325983 11.2574 0 11.1325C0 11.0429 0 10.9533 0 10.861C0.194722 10.7696 0.389985 10.6793 0.585472 10.5895C0.74849 10.5139 0.74849 10.5139 0.9148 10.4368C1.22186 10.318 1.22186 10.318 1.62914 10.318C1.67394 10.1836 1.71874 10.0492 1.7649 9.91068C1.98891 9.72688 2.21528 9.54592 2.44371 9.36764C2.53331 9.23323 2.62292 9.09883 2.71523 8.96035C2.80484 8.96035 2.89444 8.96035 2.98676 8.96035C3.00076 8.89035 3.01476 8.82035 3.02918 8.74822C3.12836 8.39658 3.26956 8.07438 3.41685 7.74062C3.61852 7.25205 3.7762 6.74831 3.93709 6.24512Z" fill="white"/>
<path d="M32.1758 19.6855C33.0918 19.7688 33.9741 19.854 34.874 20.0165C34.9717 20.033 35.0694 20.0495 35.17 20.0666C36.4493 20.2935 36.4493 20.2935 36.7917 20.6359C37.0515 22.0503 37.0595 23.704 36.7917 25.116C36.2308 25.4899 35.6741 25.5535 35.0183 25.676C34.8955 25.7007 34.7728 25.7254 34.6463 25.7508C34.5239 25.7741 34.4014 25.7974 34.2753 25.8213C34.1656 25.8424 34.0558 25.8634 33.9428 25.885C33.3572 25.9502 32.765 25.9306 32.1758 25.9306C32.1758 23.8697 32.1758 21.8089 32.1758 19.6855Z" fill="white"/>
<path d="M15.3408 36.52C17.4017 36.52 19.4625 36.52 21.5859 36.52C21.8104 36.9691 21.6366 37.4417 21.5519 37.9201C21.5234 38.0837 21.5234 38.0837 21.4944 38.2507C21.4361 38.5792 21.3758 38.9073 21.3143 39.2353C21.2967 39.3295 21.2792 39.4237 21.261 39.5208C21.0545 40.5967 21.0545 40.5967 20.907 41.0002C20.4576 41.15 20.1207 41.1535 19.6475 41.1539C19.4798 41.1541 19.3121 41.1543 19.1392 41.1545C18.8761 41.1537 18.8761 41.1537 18.6076 41.1529C18.3452 41.1537 18.3452 41.1537 18.0775 41.1545C17.9096 41.1543 17.7417 41.1541 17.5687 41.1539C17.4149 41.1538 17.2611 41.1536 17.1026 41.1535C16.761 41.1386 16.4803 41.1 16.1554 41.0002C15.6973 39.5168 15.3408 38.0843 15.3408 36.52Z" fill="white"/>
<path d="M4.75165 19.6855C4.75165 21.7464 4.75165 23.8073 4.75165 25.9306C3.22433 25.9306 3.22433 25.9306 2.5784 25.7821C2.44189 25.7515 2.30539 25.7208 2.16475 25.6893C2.0272 25.6569 1.88964 25.6245 1.74792 25.5912C1.60511 25.5588 1.46231 25.5264 1.31518 25.4931C0.96697 25.4139 0.619123 25.3335 0.27151 25.2518C0.12773 24.4313 0.11544 23.6313 0.118778 22.7996C0.118253 22.6682 0.117728 22.5369 0.117188 22.4016C0.118076 21.7525 0.135944 21.1381 0.27151 20.5001C1.1302 20.1959 1.99719 20.0135 2.89341 19.8637C2.99883 19.8459 3.10425 19.8281 3.21286 19.8097C3.74337 19.7243 4.20706 19.6855 4.75165 19.6855Z" fill="white"/>
<path d="M16.1554 4.61597C17.7234 4.61597 19.2915 4.61597 20.907 4.61597C21.0331 5.15778 21.0331 5.15778 21.1616 5.71055C21.1875 5.81958 21.2134 5.92862 21.24 6.04097C21.4718 7.06201 21.581 8.04162 21.7216 9.0961C19.616 9.0961 17.5103 9.0961 15.3408 9.0961C15.4248 8.25591 15.5119 7.4506 15.6717 6.62694C15.6883 6.53742 15.7048 6.44791 15.7219 6.35568C15.8352 5.75983 15.9876 5.20311 16.1554 4.61597Z" fill="white"/>
<path d="M22.4004 5.02324C23.279 4.95556 23.9668 5.19204 24.7847 5.4984C24.9822 5.57131 24.9822 5.57131 25.1838 5.6457C26.2741 6.06044 27.2588 6.56206 28.2381 7.19542C28.3841 7.27715 28.5301 7.35888 28.6804 7.44308C29.1475 7.81371 29.2006 8.05044 29.3073 8.62941C29.3377 8.78358 29.3682 8.93776 29.3995 9.09662C29.46 9.50337 29.46 9.50337 29.46 9.91066C28.7088 9.92994 28.025 9.86603 27.2878 9.7155C26.3081 9.52753 25.3501 9.43859 24.3541 9.39625C23.9597 9.37171 23.5989 9.32124 23.215 9.23185C22.973 8.48863 22.8537 7.74806 22.7409 6.97534C22.6426 6.32177 22.5227 5.67266 22.4004 5.02324Z" fill="white"/>
<path d="M36.3845 26.8809C36.1009 28.6801 35.5081 30.223 34.6196 31.8022C34.5157 31.9891 34.5157 31.9891 34.4097 32.1797C34.3078 32.3551 34.3078 32.3551 34.2038 32.5341C34.1435 32.6384 34.0831 32.7427 34.0209 32.8503C33.5333 33.4728 32.9593 33.5949 32.2014 33.6944C32.0437 33.7159 31.886 33.7374 31.7235 33.7596C31.604 33.7745 31.4845 33.7894 31.3613 33.8047C31.4521 33.0486 31.5438 32.2926 31.6364 31.5368C31.6678 31.2799 31.6988 31.023 31.7296 30.7661C31.7741 30.3956 31.8195 30.0253 31.8651 29.655C31.8786 29.5411 31.892 29.4272 31.9059 29.3099C31.9875 28.6567 32.1133 28.0519 32.3117 27.4239C32.5645 27.3822 32.5645 27.3822 32.8224 27.3396C33.0453 27.3026 33.2682 27.2657 33.4911 27.2287C33.6574 27.2013 33.6574 27.2013 33.827 27.1733C34.2669 27.1003 34.7049 27.0271 35.1414 26.936C35.5568 26.8578 35.9632 26.8726 36.3845 26.8809Z" fill="white"/>
<path d="M29.46 35.7053C29.4179 35.9882 29.3754 36.271 29.3327 36.5538C29.3091 36.7113 29.2855 36.8688 29.2611 37.0311C29.2372 37.176 29.2132 37.3209 29.1885 37.4702C29.1745 37.571 29.1605 37.6718 29.146 37.7757C28.7664 38.742 26.4615 39.4834 25.5229 39.9139C24.5281 40.3279 23.4873 40.7285 22.4004 40.7285C22.4266 40.6036 22.4529 40.4786 22.4799 40.3499C22.6981 39.2894 22.8825 38.2363 23.0209 37.1621C23.0792 36.7914 23.0792 36.7914 23.215 36.5199C23.4555 36.456 23.4555 36.456 23.7707 36.4138C23.8872 36.3977 24.0037 36.3816 24.1237 36.365C24.3123 36.3409 24.3123 36.3409 24.5047 36.3162C24.6325 36.2989 24.7604 36.2816 24.8921 36.2638C25.8061 36.1416 26.7215 36.0296 27.6381 35.9289C28.2485 35.861 28.8471 35.7053 29.46 35.7053Z" fill="white"/>
<path d="M31.3613 11.8114C31.6941 11.8743 32.0259 11.9398 32.3573 12.0103C32.7403 12.0922 32.7403 12.0922 33.2196 12.1423C33.9621 12.4926 34.2386 13.1442 34.6196 13.8478C34.7012 13.9947 34.7827 14.1415 34.8667 14.2928C35.6294 15.7338 36.1875 17.2465 36.3845 18.871C36.0903 18.8351 35.7961 18.7981 35.5021 18.7607C35.3383 18.7402 35.1744 18.7198 35.0057 18.6987C34.0567 18.5662 33.1166 18.3728 32.1759 18.1922C32.0817 17.458 31.9875 16.7239 31.8933 15.9897C31.8613 15.7403 31.8294 15.491 31.7973 15.2416C31.7512 14.8816 31.705 14.5217 31.6588 14.1618C31.6447 14.0516 31.6305 13.9414 31.616 13.8278C31.5298 13.1558 31.445 12.4837 31.3613 11.8114Z" fill="white"/>
<path d="M7.4668 35.7053C9.55569 35.9361 11.6362 36.1896 13.7118 36.5199C13.9857 37.2577 14.1281 38.0059 14.2719 38.7769C14.2965 38.9047 14.3212 39.0324 14.3466 39.1641C14.4481 39.7011 14.5264 40.1793 14.5264 40.7285C12.705 40.373 10.957 39.8018 9.36746 38.8278C9.1839 38.7227 9.00007 38.618 8.81593 38.5139C8.68432 38.4383 8.55272 38.3627 8.41713 38.2848C8.41713 38.1952 8.41713 38.1056 8.41713 38.0133C8.23792 37.9685 8.05872 37.9237 7.87408 37.8775C7.73968 37.1607 7.60527 36.4439 7.4668 35.7053Z" fill="white"/>
<path d="M0.679688 26.8808C1.37771 26.8608 2.02543 26.9304 2.70763 27.0675C2.85004 27.0951 2.85004 27.0951 2.99533 27.1233C3.63231 27.2488 4.26176 27.3899 4.8883 27.5596C5.00065 27.9638 5.0547 28.3492 5.08717 28.7672C5.0976 28.896 5.10804 29.0248 5.11879 29.1576C5.1349 29.362 5.1349 29.362 5.15134 29.5706C5.2422 30.6773 5.35552 31.7743 5.51726 32.8729C5.56711 33.2616 5.56711 33.2616 5.56711 33.8047C5.30947 33.7697 5.05214 33.7325 4.79496 33.6944C4.65163 33.6739 4.5083 33.6534 4.36063 33.6323C3.61756 33.458 3.19324 33.126 2.76861 32.4937C1.80332 30.8622 0.679688 28.8128 0.679688 26.8808Z" fill="white"/>
<path d="M14.5267 5.02327C14.3611 6.39734 14.136 7.7424 13.8479 9.09612C13.095 9.39905 12.3573 9.45028 11.5569 9.51189C11.2971 9.53311 11.0372 9.55449 10.7774 9.57606C10.5913 9.59079 10.5913 9.59079 10.4015 9.60582C10.0763 9.63638 9.75725 9.68174 9.43461 9.73197C8.96051 9.77493 8.96051 9.77493 8.55322 9.50341C8.28333 9.40815 8.01194 9.31691 7.73865 9.23188C7.70573 8.75064 7.72944 8.33627 7.87441 7.87427C8.26582 7.45288 8.73164 7.20039 9.23203 6.92393C9.42366 6.80712 9.42366 6.80712 9.61916 6.68794C10.5165 6.16506 11.4375 5.78706 12.4139 5.43904C12.5876 5.37656 12.5876 5.37656 12.7647 5.31282C13.3713 5.10509 13.8763 4.97145 14.5267 5.02327Z" fill="white"/>
<path d="M37.7416 33.126C37.876 33.126 38.0104 33.126 38.1489 33.126C38.1739 33.218 38.199 33.3101 38.2247 33.4049C38.5879 34.5702 39.1889 35.5132 40.2347 36.1822C40.5562 36.3505 40.5562 36.3505 40.9999 36.52C40.8641 36.9273 40.8641 36.9273 40.4908 37.1394C40.0496 37.3346 40.0496 37.3346 39.6762 37.4619C39.2946 37.6421 39.259 37.7656 39.0992 38.1492C39.0124 38.2696 38.9256 38.39 38.8362 38.514C38.5024 39.0501 38.3257 39.583 38.1489 40.1856C38.0145 40.1856 37.8801 40.1856 37.7416 40.1856C37.7056 40.0857 37.6695 39.9857 37.6324 39.8828C37.5844 39.7503 37.5365 39.6178 37.4871 39.4813C37.4398 39.3506 37.3926 39.2199 37.3439 39.0852C37.272 38.8907 37.272 38.8907 37.1986 38.6922C37.1562 38.5667 37.1139 38.4412 37.0702 38.312C37.023 38.2134 36.9757 38.1149 36.9271 38.0134C36.7926 37.9686 36.6582 37.9238 36.5198 37.8776C36.475 37.788 36.4302 37.6984 36.384 37.6061C36.1367 37.4572 35.8841 37.3168 35.6288 37.1819C35.4914 37.1087 35.3541 37.0356 35.2125 36.9602C35.1063 36.9045 35.0001 36.8489 34.8906 36.7915C34.9578 36.5899 34.9578 36.5899 35.0264 36.3843C35.186 36.3115 35.3456 36.2387 35.51 36.1636C36.5364 35.6754 37.1529 34.8485 37.538 33.7963C37.6088 33.5738 37.6778 33.3506 37.7416 33.126Z" fill="white"/>
<path d="M26.7445 0C26.8341 0 26.9237 0 27.016 0C27.0473 0.0885527 27.0787 0.177105 27.1109 0.268341C27.6015 1.58292 28.208 2.23469 29.4597 2.851C29.4597 2.9406 29.4597 3.0302 29.4597 3.12252C28.5433 3.66557 28.5433 3.66557 28.2379 3.66557C28.1931 3.79997 28.1483 3.93437 28.1021 4.07285C28.0125 4.07285 27.9229 4.07285 27.8306 4.07285C27.6179 4.48281 27.4401 4.89916 27.2706 5.32865C27.2226 5.44975 27.1747 5.57085 27.1253 5.69563C27.0892 5.78733 27.0532 5.87903 27.016 5.97351C26.9264 5.97351 26.8368 5.97351 26.7445 5.97351C26.7034 5.87359 26.6622 5.77366 26.6199 5.6707C26.2913 4.90541 26.0095 4.3528 25.3869 3.80133C25.3869 3.71172 25.3869 3.62212 25.3869 3.5298C25.2833 3.513 25.1797 3.4962 25.0729 3.47889C24.7081 3.39404 24.7081 3.39404 24.3008 3.12252C24.368 2.92091 24.368 2.92091 24.4365 2.71523C24.7081 2.57947 24.9796 2.44371 25.2511 2.30795C26.0041 1.64249 26.3694 0.910851 26.7445 0Z" fill="white"/>
<path d="M2.0373 14.7981C2.38641 15.1472 2.4176 15.4233 2.52944 15.9012C2.56479 16.0499 2.60014 16.1987 2.63656 16.3519C2.67594 16.5236 2.67594 16.5236 2.71611 16.6988C2.80572 16.6988 2.89532 16.6988 2.98764 16.6988C2.98764 16.7884 2.98764 16.878 2.98764 16.9703C3.41597 17.0974 3.79757 17.1204 4.24343 17.1145C4.36454 17.1133 4.48564 17.1121 4.61041 17.1108C4.70212 17.1092 4.79382 17.1077 4.8883 17.106C5.02329 17.526 5.00755 17.7717 4.8883 18.1921C4.35447 18.2893 3.82056 18.3859 3.28657 18.4822C3.10496 18.515 2.92337 18.5479 2.7418 18.5809C2.48069 18.6284 2.21949 18.6755 1.95829 18.7225C1.80116 18.7509 1.64404 18.7793 1.48216 18.8086C1.08697 18.8709 1.08697 18.8709 0.679688 18.8709C0.754538 18.0631 0.9272 17.3657 1.20576 16.6054C1.24059 16.5059 1.27542 16.4064 1.3113 16.3039C1.50537 15.7632 1.71926 15.2809 2.0373 14.7981Z" fill="white"/>
<path d="M31.7677 35.2982C31.6659 35.6291 31.6659 35.6291 31.4962 35.977C31.2077 36.0873 31.2077 36.0873 30.9531 36.1128C31.004 35.7819 31.004 35.7819 31.0889 35.434C31.3604 35.2982 31.3604 35.2982 31.7677 35.2982Z" fill="white"/>
<path d="M30.9531 9.50342C31.3091 9.6458 31.4682 9.72733 31.6659 10.0634C31.6995 10.1474 31.7331 10.2314 31.7677 10.318C31.5437 10.318 31.3197 10.318 31.0889 10.318C31.0441 10.0492 30.9993 9.78037 30.9531 9.50342Z" fill="white"/>
<path d="M5.15918 35.2982C5.56239 35.3654 5.56239 35.3654 5.97375 35.434C5.97375 35.658 5.97375 35.882 5.97375 36.1128C5.6178 35.9704 5.45871 35.8889 5.261 35.5528C5.2274 35.4688 5.1938 35.3848 5.15918 35.2982Z" fill="white"/>
</svg>
