<svg width="100" height="100" viewBox="0 0 100 100" fill="none" xmlns="http://www.w3.org/2000/svg">
<path d="M0 0H100V100H0V0Z" fill="white"/>
<ellipse cx="49.5" cy="49.7722" rx="42.5" ry="41.7722" fill="#5E1C1D"/>
<path d="M51.76 68.5443C49.04 68.5443 46.48 68.011 44.08 66.9443C41.68 65.8776 39.5733 64.4376 37.76 62.6243C35.9467 60.811 34.5333 58.7843 33.52 56.5443C32.5067 54.251 32 51.8776 32 49.4243C32 47.0776 32.48 44.7843 33.44 42.5443C34.4533 40.3043 35.84 38.2776 37.6 36.4643C39.36 34.651 41.44 33.211 43.84 32.1443C46.2933 31.0776 48.96 30.5443 51.84 30.5443C54.4 30.5443 56.7467 30.971 58.88 31.8243C61.0133 32.6776 62.72 33.851 64 35.3443C65.28 36.7843 65.92 38.4643 65.92 40.3843C65.92 42.251 65.3067 43.7176 64.08 44.7843C62.9067 45.7976 61.4133 46.3043 59.6 46.3043C57.8933 46.3043 56.5067 45.8243 55.44 44.8643C54.3733 43.9043 53.84 42.6243 53.84 41.0243C53.84 39.9576 54.0267 39.1576 54.4 38.6243C54.8267 38.091 55.2267 37.611 55.6 37.1843C55.9733 36.7576 56.16 36.2243 56.16 35.5843C56.16 34.7843 55.7867 34.171 55.04 33.7443C54.3467 33.3176 53.3867 33.1043 52.16 33.1043C50.6133 33.1043 49.2533 33.5576 48.08 34.4643C46.9067 35.371 46 37.0776 45.36 39.5843C44.72 42.091 44.4 45.7976 44.4 50.7043C44.4 54.651 44.64 57.7443 45.12 59.9843C45.6533 62.171 46.5067 63.691 47.68 64.5443C48.9067 65.3976 50.5067 65.8243 52.48 65.8243C55.36 65.8243 57.7867 65.0243 59.76 63.4243C61.7867 61.8243 63.52 59.2376 64.96 55.6643H67.6C66.5333 59.5043 64.64 62.6243 61.92 65.0243C59.2533 67.371 55.8667 68.5443 51.76 68.5443Z" fill="white"/>
</svg>
