<svg width="37" height="37" viewBox="0 0 37 37" fill="none" xmlns="http://www.w3.org/2000/svg">
<path d="M25.5928 5.69363C25.5928 5.31612 25.7428 4.95407 26.0097 4.68713C26.2766 4.42019 26.6387 4.27023 27.0162 4.27023H29.863V1.42342C29.863 1.04591 30.013 0.683865 30.2799 0.416925C30.5468 0.149985 30.9089 2.02259e-05 31.2864 2.02259e-05C31.6639 2.02259e-05 32.026 0.149985 32.2929 0.416925C32.5598 0.683865 32.7098 1.04591 32.7098 1.42342V4.27023H35.5566C35.9341 4.27023 36.2962 4.42019 36.5631 4.68713C36.83 4.95407 36.98 5.31612 36.98 5.69363C36.98 6.07114 36.83 6.43319 36.5631 6.70013C36.2962 6.96707 35.9341 7.11703 35.5566 7.11703H32.7098V9.96383C32.7098 10.3413 32.5598 10.7034 32.2929 10.9703C32.026 11.2373 31.6639 11.3872 31.2864 11.3872C30.9089 11.3872 30.5468 11.2373 30.2799 10.9703C30.013 10.7034 29.863 10.3413 29.863 9.96383V7.11703H27.0162C26.6387 7.11703 26.2766 6.96707 26.0097 6.70013C25.7428 6.43319 25.5928 6.07114 25.5928 5.69363ZM36.7238 15.4226C37.3741 19.2881 36.7791 23.2603 35.0247 26.7656C33.2702 30.2709 30.4472 33.128 26.9632 34.9243C23.4791 36.7206 19.5144 37.3632 15.6413 36.7592C11.7683 36.1553 8.18736 34.3362 5.41561 31.5644C2.64386 28.7927 0.8247 25.2117 0.220782 21.3387C-0.383136 17.4657 0.259443 13.5009 2.05574 10.0169C3.85204 6.53281 6.7091 3.70979 10.2144 1.95537C13.7197 0.20096 17.6919 -0.394057 21.5574 0.256233C21.9269 0.321575 22.2557 0.530171 22.4722 0.836644C22.6887 1.14312 22.7754 1.52268 22.7135 1.89276C22.6515 2.26284 22.446 2.5935 22.1416 2.81282C21.8371 3.03214 21.4584 3.12237 21.0877 3.06389C18.8425 2.6862 16.542 2.8023 14.3463 3.4041C12.1505 4.0059 10.1123 5.07894 8.37339 6.54856C6.63451 8.01818 5.23676 9.84906 4.27741 11.9138C3.31806 13.9785 2.82016 16.2275 2.81836 18.5042C2.81498 22.3371 4.2237 26.0369 6.77541 28.8969C8.36292 26.5964 10.5951 24.8167 13.1914 23.7815C11.7968 22.6831 10.7791 21.1774 10.28 19.4738C9.78077 17.7701 9.82488 15.9533 10.4061 14.2759C10.9874 12.5986 12.0769 11.144 13.5232 10.1145C14.9694 9.08505 16.7005 8.53185 18.4758 8.53185C20.251 8.53185 21.9821 9.08505 23.4284 10.1145C24.8747 11.144 25.9642 12.5986 26.5454 14.2759C27.1267 15.9533 27.1708 17.7701 26.6716 19.4738C26.1724 21.1774 25.1548 22.6831 23.7602 23.7815C26.3564 24.8167 28.5886 26.5964 30.1761 28.8969C32.7279 26.0369 34.1366 22.3371 34.1332 18.5042C34.1333 17.6291 34.0607 16.7554 33.9161 15.8923C33.8834 15.7071 33.8877 15.5173 33.9287 15.3338C33.9697 15.1503 34.0467 14.9768 34.1552 14.8232C34.2637 14.6696 34.4015 14.539 34.5607 14.439C34.72 14.339 34.8975 14.2716 35.0829 14.2405C35.2684 14.2095 35.4581 14.2155 35.6413 14.2583C35.8244 14.301 35.9972 14.3796 36.1498 14.4895C36.3023 14.5994 36.4316 14.7384 36.5301 14.8986C36.6287 15.0588 36.6945 15.2368 36.7238 15.4226ZM18.4758 22.7745C19.6019 22.7745 20.7027 22.4405 21.639 21.8149C22.5753 21.1893 23.305 20.3001 23.736 19.2597C24.1669 18.2193 24.2797 17.0745 24.06 15.9701C23.8403 14.8656 23.298 13.8511 22.5018 13.0549C21.7055 12.2586 20.691 11.7163 19.5865 11.4966C18.4821 11.2769 17.3373 11.3897 16.2969 11.8206C15.2566 12.2516 14.3673 12.9813 13.7417 13.9176C13.1161 14.854 12.7822 15.9548 12.7822 17.0808C12.7822 18.5909 13.382 20.0391 14.4498 21.1068C15.5175 22.1746 16.9657 22.7745 18.4758 22.7745ZM18.4758 34.1617C21.9513 34.1652 25.3282 33.0065 28.0695 30.8701C27.0398 29.2596 25.6212 27.9343 23.9446 27.0163C22.268 26.0983 20.3873 25.6171 18.4758 25.6171C16.5643 25.6171 14.6835 26.0983 13.0069 27.0163C11.3303 27.9343 9.91176 29.2596 8.88205 30.8701C11.6233 33.0065 15.0003 34.1652 18.4758 34.1617Z" fill="white"/>
</svg>
