<svg width="70" height="74" viewBox="0 0 70 74" fill="none" xmlns="http://www.w3.org/2000/svg">
<g filter="url(#filter0_d_1557_1417)">
<path d="M63.4375 10.9375C63.4375 11.5177 63.207 12.0741 62.7968 12.4843C62.3866 12.8945 61.8302 13.125 61.25 13.125H15.3125C14.7323 13.125 14.1759 12.8945 13.7657 12.4843C13.3555 12.0741 13.125 11.5177 13.125 10.9375C13.125 10.3573 13.3555 9.80094 13.7657 9.3907C14.1759 8.98047 14.7323 8.75 15.3125 8.75H61.25C61.8302 8.75 62.3866 8.98047 62.7968 9.3907C63.207 9.80094 63.4375 10.3573 63.4375 10.9375ZM50.3125 19.6875C50.3125 19.1073 50.082 18.5509 49.6718 18.1407C49.2616 17.7305 48.7052 17.5 48.125 17.5H8.75C8.16984 17.5 7.61344 17.7305 7.2032 18.1407C6.79297 18.5509 6.5625 19.1073 6.5625 19.6875C6.5625 20.2677 6.79297 20.8241 7.2032 21.2343C7.61344 21.6445 8.16984 21.875 8.75 21.875H48.125C48.7052 21.875 49.2616 21.6445 49.6718 21.2343C50.082 20.8241 50.3125 20.2677 50.3125 19.6875ZM45.9375 28.4375C45.9375 27.8573 45.707 27.3009 45.2968 26.8907C44.8866 26.4805 44.3302 26.25 43.75 26.25H15.3125C14.7323 26.25 14.1759 26.4805 13.7657 26.8907C13.3555 27.3009 13.125 27.8573 13.125 28.4375C13.125 29.0177 13.3555 29.5741 13.7657 29.9843C14.1759 30.3945 14.7323 30.625 15.3125 30.625H43.75C44.3302 30.625 44.8866 30.3945 45.2968 29.9843C45.707 29.5741 45.9375 29.0177 45.9375 28.4375ZM50.3125 37.1875C50.3125 36.6073 50.082 36.0509 49.6718 35.6407C49.2616 35.2305 48.7052 35 48.125 35H24.0625C23.4823 35 22.9259 35.2305 22.5157 35.6407C22.1055 36.0509 21.875 36.6073 21.875 37.1875C21.875 37.7677 22.1055 38.3241 22.5157 38.7343C22.9259 39.1445 23.4823 39.375 24.0625 39.375H48.125C48.7052 39.375 49.2616 39.1445 49.6718 38.7343C50.082 38.3241 50.3125 37.7677 50.3125 37.1875ZM50.3125 43.75H32.8125C32.2323 43.75 31.6759 43.9805 31.2657 44.3907C30.8555 44.8009 30.625 45.3573 30.625 45.9375C30.625 46.5177 30.8555 47.0741 31.2657 47.4843C31.6759 47.8945 32.2323 48.125 32.8125 48.125H50.3125C50.8927 48.125 51.4491 47.8945 51.8593 47.4843C52.2695 47.0741 52.5 46.5177 52.5 45.9375C52.5 45.3573 52.2695 44.8009 51.8593 44.3907C51.4491 43.9805 50.8927 43.75 50.3125 43.75ZM43.75 52.5H35C34.4198 52.5 33.8634 52.7305 33.4532 53.1407C33.043 53.5509 32.8125 54.1073 32.8125 54.6875C32.8125 55.2677 33.043 55.8241 33.4532 56.2343C33.8634 56.6445 34.4198 56.875 35 56.875H43.75C44.3302 56.875 44.8866 56.6445 45.2968 56.2343C45.707 55.8241 45.9375 55.2677 45.9375 54.6875C45.9375 54.1073 45.707 53.5509 45.2968 53.1407C44.8866 52.7305 44.3302 52.5 43.75 52.5ZM35 61.25H30.625C30.0448 61.25 29.4884 61.4805 29.0782 61.8907C28.668 62.3009 28.4375 62.8573 28.4375 63.4375C28.4375 64.0177 28.668 64.5741 29.0782 64.9843C29.4884 65.3945 30.0448 65.625 30.625 65.625H35C35.5802 65.625 36.1366 65.3945 36.5468 64.9843C36.957 64.5741 37.1875 64.0177 37.1875 63.4375C37.1875 62.8573 36.957 62.3009 36.5468 61.8907C36.1366 61.4805 35.5802 61.25 35 61.25Z" fill="#D9D9D9"/>
</g>
<defs>
<filter id="filter0_d_1557_1417" x="-4" y="0" width="78" height="78" filterUnits="userSpaceOnUse" color-interpolation-filters="sRGB">
<feFlood flood-opacity="0" result="BackgroundImageFix"/>
<feColorMatrix in="SourceAlpha" type="matrix" values="0 0 0 0 0 0 0 0 0 0 0 0 0 0 0 0 0 0 127 0" result="hardAlpha"/>
<feOffset dy="4"/>
<feGaussianBlur stdDeviation="2"/>
<feComposite in2="hardAlpha" operator="out"/>
<feColorMatrix type="matrix" values="0 0 0 0 0 0 0 0 0 0 0 0 0 0 0 0 0 0 0.25 0"/>
<feBlend mode="normal" in2="BackgroundImageFix" result="effect1_dropShadow_1557_1417"/>
<feBlend mode="normal" in="SourceGraphic" in2="effect1_dropShadow_1557_1417" result="shape"/>
</filter>
</defs>
</svg>
