<svg width="47" height="47" viewBox="0 0 47 47" fill="none" xmlns="http://www.w3.org/2000/svg">
<path d="M44.9438 27.6124C44.7895 27.7281 44.6139 27.8123 44.427 27.8602C44.2402 27.908 44.0457 27.9186 43.8548 27.8914C43.6639 27.8641 43.4802 27.7995 43.3142 27.7012C43.1482 27.6029 43.0033 27.4729 42.8875 27.3186C42.0023 26.1287 40.85 25.1632 39.5234 24.4999C38.1969 23.8367 36.7331 23.4941 35.25 23.4999C34.9612 23.4999 34.6788 23.4147 34.4381 23.255C34.1975 23.0953 34.0092 22.8682 33.8969 22.6021C33.8207 22.4214 33.7814 22.2273 33.7814 22.0311C33.7814 21.835 33.8207 21.6409 33.8969 21.4602C34.0092 21.194 34.1975 20.967 34.4381 20.8073C34.6788 20.6476 34.9612 20.5624 35.25 20.5624C36.0741 20.5623 36.8817 20.3311 37.581 19.8951C38.2803 19.4591 38.8433 18.8357 39.206 18.0957C39.5688 17.3557 39.7168 16.5289 39.6331 15.709C39.5495 14.8892 39.2377 14.1092 38.733 13.4577C38.2283 12.8062 37.551 12.3093 36.7781 12.0235C36.0051 11.7376 35.1675 11.6742 34.3604 11.8405C33.5532 12.0069 32.8089 12.3962 32.212 12.9643C31.615 13.5325 31.1893 14.2566 30.9833 15.0546C30.9351 15.2414 30.8505 15.4169 30.7345 15.5711C30.6184 15.7253 30.4731 15.8551 30.3069 15.9531C30.1407 16.0512 29.9568 16.1155 29.7657 16.1424C29.5746 16.1694 29.3801 16.1585 29.1933 16.1102C29.0064 16.062 28.8309 15.9775 28.6767 15.8614C28.5225 15.7454 28.3927 15.6001 28.2947 15.4338C28.1967 15.2676 28.1323 15.0837 28.1054 14.8926C28.0784 14.7016 28.0894 14.507 28.1376 14.3202C28.4236 13.2137 28.9638 12.1892 29.7154 11.3283C30.467 10.4673 31.4091 9.79364 32.4668 9.36087C33.5246 8.9281 34.6687 8.74816 35.8082 8.83539C36.9477 8.92261 38.0512 9.27458 39.0307 9.86329C40.0103 10.452 40.8389 11.2612 41.4507 12.2265C42.0625 13.1918 42.4405 14.2866 42.5547 15.4237C42.6689 16.5609 42.5162 17.709 42.1086 18.7767C41.7011 19.8444 41.0499 20.8022 40.2071 21.574C42.2042 22.4387 43.9404 23.8109 45.243 25.5543C45.3587 25.709 45.4428 25.885 45.4904 26.0722C45.538 26.2595 45.5482 26.4542 45.5204 26.6454C45.4926 26.8366 45.4274 27.0204 45.3284 27.1863C45.2295 27.3523 45.0988 27.497 44.9438 27.6124ZM35.0517 38.9218C35.158 39.0889 35.2294 39.2759 35.2615 39.4713C35.2937 39.6668 35.2859 39.8667 35.2388 40.0591C35.1917 40.2515 35.1061 40.4324 34.9873 40.5909C34.8684 40.7494 34.7188 40.8822 34.5473 40.9813C34.3758 41.0804 34.186 41.1439 33.9893 41.1677C33.7927 41.1916 33.5933 41.1755 33.403 41.1203C33.2128 41.0651 33.0357 40.972 32.8823 40.8466C32.729 40.7212 32.6026 40.566 32.5108 40.3905C31.5856 38.8238 30.2679 37.5255 28.6877 36.6235C27.1075 35.7216 25.3195 35.2472 23.5 35.2472C21.6806 35.2472 19.8925 35.7216 18.3124 36.6235C16.7322 37.5255 15.4145 38.8238 14.4892 40.3905C14.3974 40.566 14.271 40.7212 14.1177 40.8466C13.9644 40.972 13.7873 41.0651 13.597 41.1203C13.4068 41.1755 13.2073 41.1916 13.0107 41.1677C12.8141 41.1439 12.6243 41.0804 12.4528 40.9813C12.2813 40.8822 12.1316 40.7494 12.0128 40.5909C11.8939 40.4324 11.8084 40.2515 11.7612 40.0591C11.7141 39.8667 11.7064 39.6668 11.7385 39.4713C11.7707 39.2759 11.842 39.0889 11.9483 38.9218C13.3723 36.4751 15.5434 34.5498 18.1428 33.4286C16.6801 32.3088 15.6052 30.7587 15.069 28.9964C14.5329 27.234 14.5625 25.3479 15.1537 23.6033C15.7449 21.8586 16.868 20.343 18.365 19.2697C19.8621 18.1963 21.6579 17.619 23.5 17.619C25.3421 17.619 27.1379 18.1963 28.635 19.2697C30.1321 20.343 31.2551 21.8586 31.8463 23.6033C32.4376 25.3479 32.4672 27.234 31.931 28.9964C31.3949 30.7587 30.3199 32.3088 28.8573 33.4286C31.4566 34.5498 33.6278 36.4751 35.0517 38.9218ZM23.5 32.3124C24.662 32.3124 25.7979 31.9678 26.764 31.3223C27.7301 30.6767 28.4832 29.7592 28.9278 28.6856C29.3725 27.6121 29.4888 26.4309 29.2621 25.2912C29.0354 24.1516 28.4759 23.1048 27.6543 22.2831C26.8326 21.4615 25.7858 20.902 24.6462 20.6753C23.5065 20.4486 22.3253 20.5649 21.2518 21.0096C20.1782 21.4543 19.2607 22.2073 18.6151 23.1734C17.9696 24.1395 17.625 25.2754 17.625 26.4374C17.625 27.9955 18.244 29.4899 19.3458 30.5916C20.4475 31.6934 21.9419 32.3124 23.5 32.3124ZM13.2188 22.0311C13.2188 21.6416 13.064 21.268 12.7886 20.9926C12.5131 20.7171 12.1396 20.5624 11.75 20.5624C10.9259 20.5623 10.1184 20.3311 9.41906 19.8951C8.71976 19.4591 8.15676 18.8357 7.794 18.0957C7.43125 17.3557 7.28328 16.5289 7.3669 15.709C7.45053 14.8892 7.76239 14.1092 8.26708 13.4577C8.77176 12.8062 9.44904 12.3093 10.222 12.0235C10.9949 11.7376 11.8325 11.6742 12.6397 11.8405C13.4468 12.0069 14.1911 12.3962 14.7881 12.9643C15.385 13.5325 15.8107 14.2566 16.0167 15.0546C16.1141 15.4319 16.3574 15.7552 16.6931 15.9531C17.0288 16.1511 17.4294 16.2076 17.8068 16.1102C18.1841 16.0128 18.5074 15.7695 18.7053 15.4338C18.9033 15.0982 18.9598 14.6976 18.8624 14.3202C18.5765 13.2137 18.0362 12.1892 17.2847 11.3283C16.5331 10.4673 15.591 9.79364 14.5332 9.36087C13.4755 8.9281 12.3313 8.74816 11.1918 8.83539C10.0523 8.92261 8.94887 9.27458 7.96933 9.86329C6.98978 10.452 6.16114 11.2612 5.54937 12.2265C4.93759 13.1918 4.55954 14.2866 4.44532 15.4237C4.3311 16.5609 4.48384 17.709 4.89141 18.7767C5.29897 19.8444 5.9501 20.8022 6.79299 21.574C4.79785 22.4395 3.06368 23.8117 1.76252 25.5543C1.52856 25.8659 1.42797 26.2577 1.48289 26.6435C1.5378 27.0293 1.74373 27.3775 2.05535 27.6115C2.36698 27.8454 2.75879 27.946 3.14459 27.8911C3.53038 27.8362 3.87856 27.6303 4.11252 27.3186C4.99779 26.1287 6.15007 25.1632 7.47662 24.4999C8.80316 23.8367 10.2669 23.4941 11.75 23.4999C12.1396 23.4999 12.5131 23.3451 12.7886 23.0697C13.064 22.7943 13.2188 22.4207 13.2188 22.0311Z" fill="#343330"/>
</svg>
