<svg width="85" height="84" viewBox="0 0 85 84" fill="none" xmlns="http://www.w3.org/2000/svg">
<ellipse cx="42.5" cy="42.2278" rx="42.5" ry="41.7722" fill="#5E1C1D"/>
<path d="M44.76 61C42.04 61 39.48 60.4667 37.08 59.4C34.68 58.3333 32.5733 56.8933 30.76 55.08C28.9467 53.2667 27.5333 51.24 26.52 49C25.5067 46.7067 25 44.3333 25 41.88C25 39.5333 25.48 37.24 26.44 35C27.4533 32.76 28.84 30.7333 30.6 28.92C32.36 27.1067 34.44 25.6667 36.84 24.6C39.2933 23.5333 41.96 23 44.84 23C47.4 23 49.7467 23.4267 51.88 24.28C54.0133 25.1333 55.72 26.3067 57 27.8C58.28 29.24 58.92 30.92 58.92 32.84C58.92 34.7067 58.3067 36.1733 57.08 37.24C55.9067 38.2533 54.4133 38.76 52.6 38.76C50.8933 38.76 49.5067 38.28 48.44 37.32C47.3733 36.36 46.84 35.08 46.84 33.48C46.84 32.4133 47.0267 31.6133 47.4 31.08C47.8267 30.5467 48.2267 30.0667 48.6 29.64C48.9733 29.2133 49.16 28.68 49.16 28.04C49.16 27.24 48.7867 26.6267 48.04 26.2C47.3467 25.7733 46.3867 25.56 45.16 25.56C43.6133 25.56 42.2533 26.0133 41.08 26.92C39.9067 27.8267 39 29.5333 38.36 32.04C37.72 34.5467 37.4 38.2533 37.4 43.16C37.4 47.1067 37.64 50.2 38.12 52.44C38.6533 54.6267 39.5067 56.1467 40.68 57C41.9067 57.8533 43.5067 58.28 45.48 58.28C48.36 58.28 50.7867 57.48 52.76 55.88C54.7867 54.28 56.52 51.6933 57.96 48.12H60.6C59.5333 51.96 57.64 55.08 54.92 57.48C52.2533 59.8267 48.8667 61 44.76 61Z" fill="white"/>
</svg>
