<svg width="39" height="30" viewBox="0 0 39 30" fill="none" xmlns="http://www.w3.org/2000/svg">
<path d="M36.6543 0.0126953C37.8779 0.137076 38.8329 1.17032 38.833 2.42676V6.74902C38.8329 8.06122 37.7399 9.0886 36.5654 9.67383L36.2354 9.85254C34.6211 10.8009 33.5371 12.5547 33.5371 14.5625C33.5373 16.704 34.7707 18.5571 36.5654 19.4512C37.7399 20.0364 38.833 21.0629 38.833 22.375V26.6973L38.8203 26.9453C38.7041 28.0873 37.7963 28.9953 36.6543 29.1113L36.4062 29.124H2.42676C1.1704 29.1239 0.137189 28.1688 0.0126953 26.9453L0 26.6973V22.374C0.00020974 21.062 1.09318 20.0354 2.26758 19.4502C4.06195 18.5561 5.29468 16.7038 5.29492 14.5625C5.29492 12.5549 4.21155 10.801 2.59766 9.85254L2.26758 9.67383C1.16653 9.12509 0.137186 8.18828 0.0126953 6.99219L0 6.75V2.42676C0.000152157 1.08656 1.08656 0.000152023 2.42676 0H36.4062L36.6543 0.0126953ZM2.42676 1.61816C1.98018 1.61832 1.61832 1.98018 1.61816 2.42676V6.75C1.6186 7.11421 1.98195 7.72356 2.98926 8.22559C5.31175 9.38311 6.91309 11.7839 6.91309 14.5625C6.9128 17.3408 5.31156 19.7412 2.98926 20.8984C1.98181 21.4005 1.61842 22.0099 1.61816 22.374V26.6973C1.61846 27.1437 1.98027 27.5057 2.42676 27.5059H8.89941V26.5957C8.89951 26.149 9.26135 25.7872 9.70801 25.7871C10.1548 25.7871 10.5165 26.149 10.5166 26.5957V27.5059H36.4062C36.8527 27.5057 37.2145 27.1437 37.2148 26.6973V22.375C37.2148 22.0109 36.8514 21.4015 35.8438 20.8994C33.5211 19.7424 31.9192 17.3412 31.9189 14.5625C31.9189 11.7836 33.521 9.38295 35.8438 8.22559C36.8514 7.7235 37.2147 7.11322 37.2148 6.74902V2.42676C37.2147 1.98018 36.8528 1.61832 36.4062 1.61816H10.5166V2.52734C10.5166 2.97412 10.1548 3.33691 9.70801 3.33691C9.26131 3.33681 8.89944 2.97406 8.89941 2.52734V1.61816H2.42676ZM9.70801 18.9102C10.1548 18.9102 10.5166 19.2729 10.5166 19.7197V23.1572C10.5166 23.604 10.1548 23.9668 9.70801 23.9668C9.26131 23.9667 8.89944 23.6039 8.89941 23.1572V19.7197C8.89941 19.273 9.26129 18.9103 9.70801 18.9102ZM28.3154 18.6074C28.7621 18.6076 29.125 18.9693 29.125 19.416C29.1249 19.8626 28.762 20.2244 28.3154 20.2246H16.1807C15.7339 20.2246 15.3722 19.8628 15.3721 19.416C15.3721 18.9692 15.7339 18.6074 16.1807 18.6074H28.3154ZM9.70801 12.0332C10.1548 12.0332 10.5166 12.396 10.5166 12.8428V16.2812C10.5164 16.7279 10.1547 17.0898 9.70801 17.0898C9.2614 17.0897 8.8996 16.7278 8.89941 16.2812V12.8428C8.89941 12.396 9.26129 12.0333 9.70801 12.0332ZM25.8887 13.7529C26.3353 13.7531 26.6982 14.1158 26.6982 14.5625C26.698 15.0089 26.3351 15.3709 25.8887 15.3711H16.1807C15.734 15.3711 15.3723 15.0091 15.3721 14.5625C15.3721 14.1157 15.7339 13.7529 16.1807 13.7529H25.8887ZM21.0352 8.89941C21.4816 8.89985 21.8438 9.26147 21.8438 9.70801C21.8437 10.1545 21.4816 10.5162 21.0352 10.5166H16.1807C15.7339 10.5166 15.3721 10.1548 15.3721 9.70801C15.3721 9.2612 15.7339 8.89941 16.1807 8.89941H21.0352ZM9.70801 5.15723C10.1547 5.15723 10.5165 5.51912 10.5166 5.96582V9.4043C10.5166 9.85108 10.1548 10.2129 9.70801 10.2129C9.26131 10.2128 8.89944 9.85102 8.89941 9.4043V5.96582C8.89954 5.51918 9.26136 5.15733 9.70801 5.15723ZM32.5254 3.24414C33.3414 3.3269 33.9785 4.01573 33.9785 4.85352L33.9697 5.01855C33.887 5.83452 33.1981 6.47161 32.3604 6.47168L32.1943 6.46289C31.4332 6.38519 30.8282 5.77988 30.751 5.01855L30.7422 4.85352C30.7422 3.96008 31.4669 3.23555 32.3604 3.23535L32.5254 3.24414Z" fill="black"/>
</svg>
