<svg width="89" height="95" viewBox="0 0 89 95" fill="none" xmlns="http://www.w3.org/2000/svg">
<path d="M57.0712 20.6229L62.2999 31.7853C63.0045 33.3291 64.8957 34.7937 66.4903 35.1103L75.9466 36.7728C81.9912 37.8416 83.4004 42.5124 79.0616 47.1833L71.682 55.0604C70.4582 56.3666 69.7537 58.9395 70.1617 60.7999L72.2753 70.5375C73.9441 78.2166 70.0874 81.2249 63.7462 77.1874L54.8832 71.5666C53.2886 70.5374 50.6187 70.5374 49.0241 71.5666L40.1611 77.1874C33.8199 81.1853 29.9633 78.2166 31.632 70.5375L33.7458 60.7999C34.1537 58.9791 33.4491 56.4062 32.2254 55.0604L24.8458 47.1833C20.5071 42.552 21.9162 37.8812 27.9608 36.7728L37.417 35.1103C39.0116 34.8332 40.9029 33.3291 41.6074 31.7853L46.8362 20.6229C49.6175 14.5666 54.2158 14.5666 57.0712 20.6229Z" stroke="#F5F0E6" stroke-width="1.5" stroke-linecap="round" stroke-linejoin="round"/>
<path d="M29.667 19.7916H7.41699" stroke="#F5F0E6" stroke-width="1.5" stroke-linecap="round" stroke-linejoin="round"/>
<path d="M18.542 75.2084H7.41699" stroke="#F5F0E6" stroke-width="1.5" stroke-linecap="round" stroke-linejoin="round"/>
<path d="M11.1253 47.5H7.41699" stroke="#F5F0E6" stroke-width="1.5" stroke-linecap="round" stroke-linejoin="round"/>
</svg>
