<svg width="65" height="65" viewBox="0 0 65 65" fill="none" xmlns="http://www.w3.org/2000/svg">
<path d="M50.1674 32.7691L37.0709 27.9297L32.2467 14.823C31.961 14.0469 31.4441 13.3771 30.7658 12.904C30.0874 12.4309 29.2803 12.1772 28.4533 12.1772C27.6263 12.1772 26.8191 12.4309 26.1408 12.904C25.4625 13.3771 24.9456 14.0469 24.6599 14.823L19.8052 27.9297L6.6986 32.7539C5.92249 33.0396 5.25267 33.5565 4.77954 34.2348C4.30641 34.9131 4.05273 35.7202 4.05273 36.5473C4.05273 37.3743 4.30641 38.1814 4.77954 38.8597C5.25267 39.5381 5.92249 40.0549 6.6986 40.3406L19.8052 45.1953L24.6295 58.302C24.9151 59.0781 25.432 59.7479 26.1103 60.221C26.7887 60.6941 27.5958 60.9478 28.4228 60.9478C29.2499 60.9478 30.057 60.6941 30.7353 60.221C31.4136 59.7479 31.9305 59.0781 32.2162 58.302L37.0709 45.1953L50.1775 40.3711C50.9536 40.0854 51.6234 39.5685 52.0966 38.8902C52.5697 38.2119 52.8234 37.4048 52.8234 36.5777C52.8234 35.7507 52.5697 34.9436 52.0966 34.2653C51.6234 33.5869 50.9536 33.0701 50.1775 32.7844L50.1674 32.7691ZM34.7857 41.6965C34.51 41.7981 34.2596 41.9583 34.0518 42.1661C33.844 42.3739 33.6838 42.6243 33.5822 42.9L28.4381 56.8369L23.3041 42.9102C23.2026 42.6315 23.0414 42.3785 22.8317 42.1688C22.6221 41.9592 22.369 41.7979 22.0904 41.6965L8.16364 36.5625L22.0904 31.4285C22.369 31.3271 22.6221 31.1658 22.8317 30.9562C23.0414 30.7465 23.2026 30.4935 23.3041 30.2148L28.4381 16.2881L33.572 30.2148C33.6737 30.4906 33.8339 30.741 34.0417 30.9487C34.2494 31.1565 34.4998 31.3167 34.7756 31.4184L48.7125 36.5625L34.7857 41.6965ZM36.5631 10.1562C36.5631 9.61753 36.7771 9.10087 37.158 8.71994C37.5389 8.33901 38.0556 8.125 38.5943 8.125H42.6568V4.0625C42.6568 3.52378 42.8708 3.00712 43.2517 2.62619C43.6327 2.24526 44.1493 2.03125 44.6881 2.03125C45.2268 2.03125 45.7434 2.24526 46.1244 2.62619C46.5053 3.00712 46.7193 3.52378 46.7193 4.0625V8.125H50.7818C51.3205 8.125 51.8372 8.33901 52.2181 8.71994C52.5991 9.10087 52.8131 9.61753 52.8131 10.1562C52.8131 10.695 52.5991 11.2116 52.2181 11.5926C51.8372 11.9735 51.3205 12.1875 50.7818 12.1875H46.7193V16.25C46.7193 16.7887 46.5053 17.3054 46.1244 17.6863C45.7434 18.0672 45.2268 18.2812 44.6881 18.2812C44.1493 18.2812 43.6327 18.0672 43.2517 17.6863C42.8708 17.3054 42.6568 16.7887 42.6568 16.25V12.1875H38.5943C38.0556 12.1875 37.5389 11.9735 37.158 11.5926C36.7771 11.2116 36.5631 10.695 36.5631 10.1562ZM62.9693 22.3438C62.9693 22.8825 62.7553 23.3991 62.3744 23.7801C61.9934 24.161 61.4768 24.375 60.9381 24.375H58.9068V26.4062C58.9068 26.945 58.6928 27.4616 58.3119 27.8426C57.9309 28.2235 57.4143 28.4375 56.8756 28.4375C56.3368 28.4375 55.8202 28.2235 55.4392 27.8426C55.0583 27.4616 54.8443 26.945 54.8443 26.4062V24.375H52.8131C52.2743 24.375 51.7577 24.161 51.3767 23.7801C50.9958 23.3991 50.7818 22.8825 50.7818 22.3438C50.7818 21.805 50.9958 21.2884 51.3767 20.9074C51.7577 20.5265 52.2743 20.3125 52.8131 20.3125H54.8443V18.2812C54.8443 17.7425 55.0583 17.2259 55.4392 16.8449C55.8202 16.464 56.3368 16.25 56.8756 16.25C57.4143 16.25 57.9309 16.464 58.3119 16.8449C58.6928 17.2259 58.9068 17.7425 58.9068 18.2812V20.3125H60.9381C61.4768 20.3125 61.9934 20.5265 62.3744 20.9074C62.7553 21.2884 62.9693 21.805 62.9693 22.3438Z" fill="#D9D9D9"/>
</svg>
