<svg width="74" height="80" viewBox="0 0 74 80" fill="none" xmlns="http://www.w3.org/2000/svg">
<path d="M20.6887 13.8001L20.9046 26.4333C20.9354 28.1667 19.9178 30.4667 18.6228 31.5L10.9762 37.7666C6.07367 41.7666 6.87536 46.6667 12.7337 48.6667L22.6928 52.0333C24.3578 52.6 26.1153 54.5667 26.547 56.4001L28.9212 66.2C30.802 73.9333 35.4887 74.7 39.3737 67.9L44.8004 58.4C45.7871 56.6666 48.1304 55.3667 49.9804 55.4667L60.2786 56.0333C67.6478 56.4333 69.7445 51.8334 64.9345 45.7667L58.8296 38.1C57.6887 36.6667 57.1646 34 57.6887 32.2L60.8028 21.4333C62.6219 15.1 59.3536 11.6 53.5261 13.6667L44.4303 16.9C42.8886 17.4334 40.5761 17.0667 39.2811 16.0333L29.7844 8.63333C24.6661 4.63333 20.5654 6.96673 20.6887 13.8001Z" stroke="#F5F0E6" stroke-width="1.5" stroke-linecap="round" stroke-linejoin="round"/>
<path d="M6.44373 73.3334L15.7861 63.2334" stroke="#F5F0E6" stroke-width="1.5" stroke-linecap="round" stroke-linejoin="round"/>
</svg>
