<svg id="svg" version="1.1" xmlns="http://www.w3.org/2000/svg" xmlns:xlink="http://www.w3.org/1999/xlink" width="400" height="400" viewBox="0, 0, 400,400"><g id="svgg"><path id="path0" d="M145.819 33.038 C 145.360 33.497,144.621 33.637,143.186 33.538 C 141.964 33.453,141.250 33.555,141.345 33.801 C 141.429 34.021,140.937 34.201,140.249 34.201 C 139.562 34.200,139.034 34.392,139.076 34.627 C 139.122 34.886,138.649 34.984,137.876 34.876 C 137.174 34.778,136.726 34.832,136.881 34.997 C 137.416 35.565,136.051 36.400,134.586 36.400 C 133.518 36.400,133.171 36.548,133.321 36.938 C 133.468 37.323,133.254 37.423,132.563 37.291 C 131.535 37.094,131.308 37.548,132.058 38.298 C 132.401 38.641,132.316 38.703,131.717 38.547 C 130.970 38.351,130.640 38.574,129.276 40.195 C 128.988 40.537,128.597 40.722,128.407 40.604 C 128.217 40.487,127.674 40.935,127.200 41.600 C 126.726 42.265,126.168 42.704,125.960 42.575 C 125.751 42.446,125.630 42.579,125.690 42.870 C 125.751 43.162,125.553 43.348,125.251 43.284 C 124.908 43.211,124.788 43.392,124.931 43.763 C 125.094 44.188,124.973 44.288,124.510 44.110 C 124.028 43.925,123.926 44.030,124.113 44.518 C 124.252 44.879,124.165 45.298,123.921 45.449 C 123.652 45.615,123.589 45.541,123.762 45.262 C 123.919 45.008,123.857 44.800,123.624 44.800 C 123.391 44.800,123.200 45.081,123.200 45.424 C 123.200 45.767,123.036 45.946,122.835 45.822 C 122.634 45.698,122.520 46.047,122.580 46.598 C 122.640 47.149,122.535 47.600,122.345 47.600 C 122.155 47.600,121.986 47.915,121.968 48.300 C 121.950 48.718,121.856 48.799,121.735 48.500 C 121.624 48.225,121.368 48.000,121.167 48.000 C 120.628 48.000,120.720 49.355,121.300 49.969 C 121.713 50.405,121.643 50.417,120.900 50.035 C 120.116 49.631,120.000 49.672,120.000 50.353 C 120.000 50.782,119.837 51.193,119.638 51.267 C 119.439 51.340,119.214 51.850,119.138 52.400 C 119.062 52.950,118.714 53.670,118.365 54.000 C 117.926 54.415,117.701 55.461,117.634 57.396 C 117.545 59.982,117.106 61.036,116.319 60.550 C 116.144 60.442,116.000 65.313,116.000 71.376 L 116.000 82.400 72.186 82.400 C 30.169 82.400,28.388 82.429,28.756 83.118 C 29.110 83.779,28.969 83.817,26.970 83.597 C 25.777 83.465,24.800 83.502,24.800 83.679 C 24.800 83.856,24.365 84.000,23.833 84.000 C 22.459 84.000,21.561 84.412,21.864 84.904 C 22.008 85.136,21.934 85.206,21.698 85.061 C 21.089 84.684,20.000 85.185,20.000 85.843 C 20.000 86.536,19.338 86.576,19.064 85.900 C 18.932 85.576,18.745 85.541,18.530 85.800 C 18.022 86.416,16.482 87.200,15.782 87.200 C 15.436 87.200,15.264 87.380,15.400 87.600 C 15.542 87.830,15.170 88.003,14.524 88.006 C 13.677 88.011,13.545 88.104,13.986 88.383 C 14.457 88.681,14.358 88.836,13.484 89.168 C 12.884 89.396,12.440 89.790,12.497 90.043 C 12.554 90.296,12.178 90.541,11.663 90.587 C 11.148 90.634,10.608 90.836,10.463 91.036 C 10.318 91.236,9.840 91.600,9.400 91.844 C 8.960 92.088,8.592 92.538,8.582 92.844 C 8.572 93.150,8.347 93.355,8.082 93.300 C 7.817 93.245,7.645 93.425,7.700 93.700 C 7.755 93.975,7.589 94.160,7.330 94.110 C 7.030 94.053,6.915 94.449,7.011 95.210 C 7.094 95.865,6.991 96.400,6.781 96.400 C 6.571 96.400,6.395 96.175,6.388 95.900 C 6.381 95.625,6.163 95.760,5.903 96.200 C 5.429 97.001,5.374 97.197,5.261 98.500 C 5.227 98.885,5.065 99.179,4.900 99.153 C 4.016 99.013,3.600 99.284,3.600 100.000 C 3.600 100.440,3.420 100.800,3.200 100.800 C 2.980 100.800,2.800 101.171,2.800 101.624 C 2.800 102.077,2.657 102.359,2.483 102.251 C 2.169 102.057,2.030 102.688,1.879 105.000 C 1.832 105.706,1.597 106.160,1.307 106.102 C 0.804 106.003,0.265 107.447,0.433 108.446 C 0.484 108.751,0.403 109.278,0.252 109.618 C 0.101 109.958,0.028 125.133,0.089 143.341 L 0.200 176.446 1.180 177.185 C 2.058 177.847,2.100 177.999,1.580 178.639 C 1.225 179.077,1.194 179.237,1.500 179.053 C 1.865 178.834,2.002 179.165,2.006 180.276 C 2.011 181.407,2.112 181.645,2.400 181.200 C 2.766 180.634,3.046 181.770,2.831 182.949 C 2.796 183.141,3.065 183.184,3.428 183.045 C 3.906 182.861,4.025 182.958,3.857 183.395 C 3.579 184.120,4.052 184.188,4.720 183.520 C 5.093 183.147,5.200 183.147,5.200 183.520 C 5.200 183.784,5.020 184.000,4.800 184.000 C 4.580 184.000,4.400 184.360,4.400 184.800 C 4.400 185.260,4.667 185.600,5.027 185.600 C 5.472 185.600,5.580 185.832,5.400 186.400 C 5.249 186.877,5.328 187.200,5.597 187.200 C 5.844 187.200,5.936 187.020,5.800 186.800 C 5.664 186.580,5.743 186.400,5.976 186.400 C 6.209 186.400,6.422 186.580,6.450 186.800 C 6.478 187.020,6.545 187.380,6.600 187.600 C 6.655 187.820,6.722 188.191,6.750 188.424 C 6.777 188.657,6.935 188.769,7.100 188.674 C 7.499 188.445,11.627 192.640,11.312 192.955 C 11.177 193.090,11.277 193.223,11.533 193.250 C 11.790 193.278,12.180 193.345,12.400 193.400 C 12.620 193.455,12.980 193.523,13.200 193.550 C 13.420 193.578,13.600 193.791,13.600 194.024 C 13.600 194.257,13.420 194.336,13.200 194.200 C 12.980 194.064,12.800 194.156,12.800 194.403 C 12.800 194.672,13.123 194.751,13.600 194.600 C 14.168 194.420,14.400 194.528,14.400 194.973 C 14.400 195.333,14.740 195.600,15.200 195.600 C 15.640 195.600,16.000 195.420,16.000 195.200 C 16.000 194.980,16.216 194.800,16.480 194.800 C 16.853 194.800,16.853 194.907,16.480 195.280 C 15.812 195.948,15.880 196.421,16.605 196.143 C 17.042 195.975,17.139 196.094,16.955 196.572 C 16.816 196.935,16.859 197.204,17.051 197.169 C 18.230 196.954,19.366 197.234,18.800 197.600 C 18.355 197.888,18.593 197.989,19.724 197.994 C 20.835 197.998,21.166 198.135,20.947 198.500 C 20.771 198.792,20.950 198.753,21.378 198.405 C 22.039 197.869,22.167 197.898,22.704 198.705 C 23.094 199.294,23.700 199.600,24.472 199.600 C 25.154 199.600,25.543 199.768,25.400 200.000 C 25.236 200.266,48.996 200.400,96.376 200.400 L 167.600 200.400 167.600 195.000 C 167.600 190.950,167.725 189.598,168.100 189.594 C 168.433 189.590,168.400 189.458,168.000 189.200 C 167.550 188.909,167.533 188.811,167.933 188.806 C 168.227 188.803,168.393 188.579,168.303 188.309 C 168.083 187.649,168.871 186.852,169.502 187.095 C 169.848 187.227,169.922 187.063,169.735 186.575 C 169.520 186.014,169.610 185.918,170.157 186.128 C 170.706 186.339,170.801 186.235,170.610 185.631 C 170.300 184.655,171.031 184.206,172.693 184.349 C 173.617 184.428,173.959 184.306,173.865 183.931 C 173.791 183.639,173.807 183.535,173.899 183.700 C 174.118 184.092,225.882 184.092,226.101 183.700 C 226.193 183.535,226.209 183.639,226.135 183.931 C 226.041 184.306,226.383 184.428,227.307 184.349 C 228.969 184.206,229.700 184.655,229.390 185.631 C 229.199 186.235,229.294 186.339,229.843 186.128 C 230.390 185.918,230.480 186.014,230.265 186.575 C 230.078 187.063,230.152 187.227,230.498 187.095 C 231.129 186.852,231.917 187.649,231.697 188.309 C 231.607 188.579,231.773 188.803,232.067 188.806 C 232.467 188.811,232.450 188.909,232.000 189.200 C 231.600 189.458,231.567 189.590,231.900 189.594 C 232.275 189.598,232.400 190.950,232.400 195.000 L 232.400 200.400 303.624 200.400 C 351.004 200.400,374.764 200.266,374.600 200.000 C 374.457 199.768,374.846 199.600,375.528 199.600 C 376.300 199.600,376.906 199.294,377.296 198.705 C 377.833 197.898,377.961 197.869,378.622 198.405 C 379.050 198.753,379.229 198.792,379.053 198.500 C 378.834 198.135,379.165 197.998,380.276 197.994 C 381.407 197.989,381.645 197.888,381.200 197.600 C 380.634 197.234,381.770 196.954,382.949 197.169 C 383.141 197.204,383.184 196.935,383.045 196.572 C 382.861 196.094,382.958 195.975,383.395 196.143 C 384.120 196.421,384.188 195.948,383.520 195.280 C 383.147 194.907,383.147 194.800,383.520 194.800 C 383.784 194.800,384.000 194.980,384.000 195.200 C 384.000 195.420,384.360 195.600,384.800 195.600 C 385.260 195.600,385.600 195.333,385.600 194.973 C 385.600 194.528,385.832 194.420,386.400 194.600 C 386.877 194.751,387.200 194.672,387.200 194.403 C 387.200 194.156,387.020 194.064,386.800 194.200 C 386.580 194.336,386.400 194.257,386.400 194.024 C 386.400 193.791,386.580 193.578,386.800 193.550 C 387.020 193.523,387.380 193.455,387.600 193.400 C 387.820 193.345,388.191 193.278,388.424 193.250 C 388.657 193.222,388.769 193.065,388.674 192.900 C 388.445 192.501,392.640 188.373,392.955 188.688 C 393.090 188.823,393.223 188.723,393.250 188.467 C 393.278 188.210,393.345 187.820,393.400 187.600 C 393.455 187.380,393.523 187.020,393.550 186.800 C 393.578 186.580,393.791 186.400,394.024 186.400 C 394.257 186.400,394.336 186.580,394.200 186.800 C 394.064 187.020,394.156 187.200,394.403 187.200 C 394.672 187.200,394.751 186.877,394.600 186.400 C 394.420 185.832,394.528 185.600,394.973 185.600 C 395.333 185.600,395.600 185.260,395.600 184.800 C 395.600 184.360,395.420 184.000,395.200 184.000 C 394.980 184.000,394.800 183.784,394.800 183.520 C 394.800 183.147,394.907 183.147,395.280 183.520 C 395.948 184.188,396.421 184.120,396.143 183.395 C 395.975 182.958,396.094 182.861,396.572 183.045 C 396.935 183.184,397.204 183.141,397.169 182.949 C 396.954 181.770,397.234 180.634,397.600 181.200 C 397.888 181.645,397.989 181.407,397.994 180.276 C 397.998 179.165,398.135 178.834,398.500 179.053 C 398.806 179.237,398.775 179.077,398.420 178.639 C 397.900 177.999,397.942 177.847,398.820 177.185 L 399.800 176.446 399.911 143.341 C 399.972 125.133,399.899 109.958,399.748 109.618 C 399.597 109.278,399.516 108.751,399.567 108.446 C 399.735 107.447,399.196 106.003,398.693 106.102 C 398.403 106.160,398.168 105.706,398.121 105.000 C 397.970 102.688,397.831 102.057,397.517 102.251 C 397.343 102.359,397.200 102.077,397.200 101.624 C 397.200 101.171,397.020 100.800,396.800 100.800 C 396.580 100.800,396.400 100.440,396.400 100.000 C 396.400 99.284,395.984 99.013,395.100 99.153 C 394.935 99.179,394.773 98.885,394.739 98.500 C 394.626 97.197,394.571 97.001,394.097 96.200 C 393.837 95.760,393.619 95.625,393.612 95.900 C 393.605 96.175,393.429 96.400,393.219 96.400 C 393.009 96.400,392.906 95.865,392.989 95.210 C 393.085 94.449,392.970 94.053,392.670 94.110 C 392.411 94.160,392.245 93.975,392.300 93.700 C 392.355 93.425,392.183 93.245,391.918 93.300 C 391.653 93.355,391.428 93.150,391.418 92.844 C 391.408 92.538,391.040 92.088,390.600 91.844 C 390.160 91.600,389.682 91.236,389.537 91.036 C 389.392 90.836,388.852 90.634,388.337 90.587 C 387.822 90.541,387.446 90.296,387.503 90.043 C 387.560 89.790,387.116 89.396,386.516 89.168 C 385.642 88.836,385.543 88.681,386.014 88.383 C 386.455 88.104,386.323 88.011,385.476 88.006 C 384.830 88.003,384.458 87.830,384.600 87.600 C 384.736 87.380,384.564 87.200,384.218 87.200 C 383.518 87.200,381.978 86.416,381.470 85.800 C 381.255 85.541,381.068 85.576,380.936 85.900 C 380.662 86.576,380.000 86.536,380.000 85.843 C 380.000 85.185,378.911 84.684,378.302 85.061 C 378.066 85.206,377.992 85.136,378.136 84.904 C 378.439 84.412,377.541 84.000,376.167 84.000 C 375.635 84.000,375.200 83.856,375.200 83.679 C 375.200 83.502,374.223 83.465,373.030 83.597 C 371.031 83.817,370.890 83.779,371.244 83.118 C 371.612 82.429,369.831 82.400,327.814 82.400 L 284.000 82.400 284.000 71.376 C 284.000 65.313,283.856 60.442,283.681 60.550 C 282.894 61.036,282.455 59.982,282.366 57.396 C 282.299 55.461,282.074 54.415,281.635 54.000 C 281.286 53.670,280.938 52.950,280.862 52.400 C 280.786 51.850,280.561 51.340,280.362 51.267 C 280.163 51.193,280.000 50.782,280.000 50.353 C 280.000 49.672,279.884 49.631,279.100 50.035 C 278.357 50.417,278.287 50.405,278.700 49.969 C 279.280 49.355,279.372 48.000,278.833 48.000 C 278.632 48.000,278.376 48.225,278.265 48.500 C 278.144 48.799,278.050 48.718,278.032 48.300 C 278.014 47.915,277.845 47.600,277.655 47.600 C 277.465 47.600,277.360 47.149,277.420 46.598 C 277.480 46.047,277.366 45.698,277.165 45.822 C 276.964 45.946,276.800 45.767,276.800 45.424 C 276.800 45.081,276.609 44.800,276.376 44.800 C 276.143 44.800,276.081 45.008,276.238 45.262 C 276.411 45.541,276.348 45.615,276.079 45.449 C 275.835 45.298,275.748 44.879,275.887 44.518 C 276.074 44.030,275.972 43.925,275.490 44.110 C 275.027 44.288,274.906 44.188,275.069 43.763 C 275.212 43.392,275.092 43.211,274.749 43.284 C 274.447 43.348,274.249 43.162,274.310 42.870 C 274.370 42.579,274.249 42.446,274.040 42.575 C 273.832 42.704,273.274 42.265,272.800 41.600 C 272.326 40.935,271.787 40.484,271.602 40.599 C 271.284 40.796,270.959 40.526,269.652 38.980 C 269.331 38.599,268.770 38.419,268.295 38.543 C 267.687 38.702,267.599 38.641,267.942 38.298 C 268.692 37.548,268.465 37.094,267.437 37.291 C 266.746 37.423,266.532 37.323,266.679 36.938 C 266.829 36.548,266.482 36.400,265.414 36.400 C 263.949 36.400,262.584 35.565,263.119 34.997 C 263.274 34.832,262.826 34.778,262.124 34.876 C 261.351 34.984,260.878 34.886,260.924 34.627 C 260.966 34.392,260.438 34.200,259.751 34.201 C 259.063 34.201,258.571 34.021,258.655 33.801 C 258.750 33.555,258.036 33.453,256.814 33.538 C 255.379 33.637,254.640 33.497,254.181 33.038 C 253.203 32.060,146.797 32.060,145.819 33.038 M249.600 75.000 L 249.600 82.400 200.000 82.400 L 150.400 82.400 150.400 75.000 L 150.400 67.600 200.000 67.600 L 249.600 67.600 249.600 75.000 M5.200 208.227 C 5.200 208.687,4.970 208.781,4.339 208.581 C 3.636 208.358,3.528 208.434,3.745 209.002 C 3.959 209.559,3.844 209.653,3.167 209.476 C 1.955 209.158,1.235 209.545,1.405 210.423 C 1.488 210.856,1.346 211.144,1.075 211.092 C 0.814 211.041,0.613 211.396,0.630 211.880 C 0.646 212.364,0.511 212.669,0.330 212.557 C 0.148 212.444,0.000 241.153,0.000 276.353 C 0.000 316.639,0.142 340.440,0.383 340.589 C 0.593 340.719,0.664 341.090,0.539 341.414 C 0.205 342.285,0.739 344.010,1.307 343.898 C 1.597 343.840,1.832 344.294,1.879 345.000 C 2.030 347.312,2.169 347.943,2.483 347.749 C 2.657 347.641,2.800 347.923,2.800 348.376 C 2.800 348.829,2.980 349.200,3.200 349.200 C 3.420 349.200,3.600 349.560,3.600 350.000 C 3.600 350.716,4.016 350.987,4.900 350.847 C 5.065 350.821,5.227 351.115,5.261 351.500 C 5.433 353.475,6.003 354.635,6.456 353.934 C 6.738 353.496,6.868 353.506,7.179 353.989 C 7.432 354.382,7.398 354.680,7.079 354.883 C 6.761 355.085,6.851 355.190,7.347 355.194 C 7.891 355.198,8.038 355.413,7.888 355.986 C 7.769 356.438,7.869 356.736,8.123 356.686 C 8.365 356.639,8.572 356.850,8.582 357.156 C 8.592 357.462,8.960 357.912,9.400 358.156 C 9.840 358.400,10.318 358.764,10.463 358.964 C 10.608 359.164,11.148 359.366,11.663 359.413 C 12.178 359.459,12.554 359.704,12.497 359.957 C 12.440 360.210,12.884 360.604,13.484 360.832 C 14.358 361.164,14.457 361.319,13.986 361.617 C 13.545 361.896,13.677 361.989,14.524 361.994 C 15.170 361.997,15.542 362.170,15.400 362.400 C 15.264 362.620,15.436 362.800,15.782 362.800 C 16.482 362.800,18.022 363.584,18.530 364.200 C 18.745 364.459,18.932 364.424,19.064 364.100 C 19.338 363.424,20.000 363.464,20.000 364.157 C 20.000 364.815,21.089 365.316,21.698 364.939 C 21.934 364.794,22.008 364.864,21.864 365.096 C 21.561 365.588,22.459 366.000,23.833 366.000 C 24.365 366.000,24.800 366.144,24.800 366.321 C 24.800 366.498,25.777 366.535,26.970 366.403 C 28.969 366.183,29.110 366.221,28.756 366.882 C 28.387 367.572,35.049 367.600,200.000 367.600 C 364.951 367.600,371.613 367.572,371.244 366.882 C 370.890 366.221,371.031 366.183,373.030 366.403 C 374.223 366.535,375.200 366.498,375.200 366.321 C 375.200 366.144,375.566 366.000,376.013 366.000 C 376.459 366.000,376.928 365.731,377.054 365.402 C 377.181 365.074,377.455 364.911,377.665 365.040 C 378.306 365.436,380.000 364.821,380.000 364.192 C 380.000 363.472,380.655 363.407,380.936 364.100 C 381.068 364.424,381.255 364.459,381.470 364.200 C 381.978 363.584,383.518 362.800,384.218 362.800 C 384.564 362.800,384.736 362.620,384.600 362.400 C 384.458 362.170,384.830 361.997,385.476 361.994 C 386.323 361.989,386.455 361.896,386.014 361.617 C 385.543 361.319,385.642 361.164,386.516 360.832 C 387.116 360.604,387.560 360.210,387.503 359.957 C 387.446 359.704,387.822 359.459,388.337 359.413 C 388.852 359.366,389.392 359.164,389.537 358.964 C 389.682 358.764,390.160 358.400,390.600 358.156 C 391.040 357.912,391.408 357.462,391.418 357.156 C 391.428 356.850,391.635 356.639,391.877 356.686 C 392.131 356.736,392.231 356.438,392.112 355.986 C 391.962 355.413,392.109 355.198,392.653 355.194 C 393.149 355.190,393.239 355.085,392.921 354.883 C 392.602 354.680,392.568 354.382,392.821 353.989 C 393.132 353.506,393.262 353.496,393.544 353.934 C 393.997 354.635,394.567 353.475,394.739 351.500 C 394.773 351.115,394.935 350.821,395.100 350.847 C 395.984 350.987,396.400 350.716,396.400 350.000 C 396.400 349.560,396.580 349.200,396.800 349.200 C 397.020 349.200,397.200 348.829,397.200 348.376 C 397.200 347.923,397.343 347.641,397.517 347.749 C 397.831 347.943,397.970 347.312,398.121 345.000 C 398.168 344.294,398.403 343.840,398.693 343.898 C 399.261 344.010,399.795 342.285,399.461 341.414 C 399.336 341.090,399.407 340.719,399.617 340.589 C 399.858 340.440,400.000 316.639,400.000 276.353 C 400.000 241.153,399.852 212.444,399.670 212.557 C 399.489 212.669,399.354 212.364,399.370 211.880 C 399.387 211.396,399.186 211.041,398.925 211.092 C 398.654 211.144,398.512 210.856,398.595 210.423 C 398.765 209.545,398.045 209.158,396.833 209.476 C 396.156 209.653,396.041 209.559,396.255 209.002 C 396.472 208.434,396.364 208.358,395.661 208.581 C 395.030 208.781,394.800 208.687,394.800 208.227 C 394.800 207.882,394.609 207.600,394.376 207.600 C 394.143 207.600,394.081 207.808,394.238 208.062 C 394.395 208.316,394.355 208.420,394.150 208.293 C 393.329 207.785,388.197 207.877,388.317 208.396 C 388.393 208.726,388.150 208.828,387.617 208.689 C 387.168 208.571,386.800 208.630,386.800 208.819 C 386.800 209.009,386.170 209.282,385.400 209.426 C 384.149 209.661,383.390 210.400,384.400 210.400 C 384.620 210.400,384.800 210.560,384.800 210.756 C 384.800 210.951,384.575 211.103,384.300 211.093 C 382.695 211.033,382.000 211.261,382.000 211.847 C 382.000 212.296,381.756 212.430,381.200 212.284 C 380.761 212.169,380.283 212.266,380.139 212.499 C 379.973 212.767,380.070 212.804,380.400 212.600 C 380.722 212.401,380.826 212.434,380.671 212.685 C 380.533 212.909,379.920 213.026,379.310 212.945 C 378.699 212.863,378.433 212.905,378.717 213.037 C 379.319 213.318,378.625 214.404,377.851 214.394 C 377.603 214.391,377.670 214.213,378.000 214.000 C 378.518 213.665,378.508 213.611,377.927 213.606 C 377.557 213.603,377.140 213.960,377.000 214.400 C 376.738 215.225,374.800 215.578,374.800 214.800 C 374.800 214.580,374.620 214.400,374.400 214.400 C 374.180 214.400,374.000 214.693,374.000 215.051 C 374.000 215.591,373.659 215.669,371.991 215.509 C 370.109 215.328,369.996 215.369,370.188 216.158 C 370.300 216.621,370.289 216.775,370.163 216.500 C 369.981 216.103,355.789 216.000,301.157 216.000 L 232.380 216.000 232.490 230.149 C 232.577 241.340,232.495 244.258,232.100 244.106 C 231.797 243.990,231.600 244.247,231.600 244.757 C 231.600 245.221,231.409 245.600,231.176 245.600 C 230.943 245.600,230.864 245.780,231.000 246.000 C 231.136 246.220,230.956 246.400,230.600 246.400 C 230.244 246.400,230.064 246.580,230.200 246.800 C 230.336 247.020,230.137 247.200,229.757 247.200 C 229.377 247.200,229.184 247.317,229.327 247.461 C 229.758 247.891,227.606 248.800,226.154 248.800 C 225.409 248.800,224.800 248.980,224.800 249.200 C 224.800 249.462,216.267 249.600,200.000 249.600 C 183.733 249.600,175.200 249.462,175.200 249.200 C 175.200 248.980,174.591 248.800,173.846 248.800 C 172.394 248.800,170.242 247.891,170.673 247.461 C 170.816 247.317,170.623 247.200,170.243 247.200 C 169.863 247.200,169.664 247.020,169.800 246.800 C 169.936 246.580,169.756 246.400,169.400 246.400 C 169.044 246.400,168.864 246.220,169.000 246.000 C 169.136 245.780,169.057 245.600,168.824 245.600 C 168.591 245.600,168.400 245.221,168.400 244.757 C 168.400 244.247,168.203 243.990,167.900 244.106 C 167.505 244.258,167.423 241.340,167.510 230.149 L 167.620 216.000 98.843 216.000 C 44.211 216.000,30.019 216.103,29.837 216.500 C 29.711 216.775,29.700 216.621,29.812 216.158 C 30.004 215.369,29.891 215.328,28.009 215.509 C 26.341 215.669,26.000 215.591,26.000 215.051 C 26.000 214.693,25.820 214.400,25.600 214.400 C 25.380 214.400,25.200 214.580,25.200 214.800 C 25.200 215.578,23.262 215.225,23.000 214.400 C 22.860 213.960,22.443 213.603,22.073 213.606 C 21.492 213.611,21.482 213.665,22.000 214.000 C 22.330 214.213,22.397 214.391,22.149 214.394 C 21.375 214.404,20.681 213.318,21.283 213.037 C 21.567 212.905,21.301 212.863,20.690 212.945 C 20.080 213.026,19.467 212.909,19.329 212.685 C 19.174 212.434,19.278 212.401,19.600 212.600 C 19.930 212.804,20.027 212.767,19.861 212.499 C 19.717 212.266,19.239 212.169,18.800 212.284 C 18.244 212.430,18.000 212.296,18.000 211.847 C 18.000 211.261,17.305 211.033,15.700 211.093 C 15.425 211.103,15.200 210.951,15.200 210.756 C 15.200 210.560,15.380 210.400,15.600 210.400 C 16.610 210.400,15.851 209.661,14.600 209.426 C 13.830 209.282,13.200 209.009,13.200 208.819 C 13.200 208.630,12.832 208.571,12.383 208.689 C 11.850 208.828,11.607 208.726,11.683 208.396 C 11.803 207.877,6.671 207.785,5.850 208.293 C 5.645 208.420,5.605 208.316,5.762 208.062 C 5.919 207.808,5.857 207.600,5.624 207.600 C 5.391 207.600,5.200 207.882,5.200 208.227 M174.305 249.475 C 173.922 249.575,173.202 249.579,172.705 249.483 C 172.207 249.387,172.520 249.305,173.400 249.301 C 174.280 249.296,174.687 249.375,174.305 249.475 M227.505 249.475 C 227.122 249.575,226.402 249.579,225.905 249.483 C 225.407 249.387,225.720 249.305,226.600 249.301 C 227.480 249.296,227.887 249.375,227.505 249.475 " stroke="none" fill="#5c1c1c" fill-rule="evenodd"></path><path id="path1" d="M142.500 33.487 C 143.105 33.578,144.095 33.578,144.700 33.487 C 145.305 33.395,144.810 33.320,143.600 33.320 C 142.390 33.320,141.895 33.395,142.500 33.487 M255.300 33.487 C 255.905 33.578,256.895 33.578,257.500 33.487 C 258.105 33.395,257.610 33.320,256.400 33.320 C 255.190 33.320,254.695 33.395,255.300 33.487 M136.400 35.130 C 136.400 35.337,135.995 35.637,135.500 35.796 C 134.738 36.040,134.708 36.114,135.299 36.272 C 136.113 36.489,137.422 35.384,136.803 35.002 C 136.581 34.865,136.400 34.922,136.400 35.130 M263.092 35.042 C 262.666 35.468,263.956 36.469,264.701 36.291 C 265.327 36.141,265.317 36.089,264.600 35.791 C 264.160 35.608,263.698 35.308,263.573 35.123 C 263.448 34.939,263.231 34.902,263.092 35.042 M129.452 39.408 C 129.317 39.762,129.024 39.939,128.803 39.802 C 128.581 39.665,128.400 39.828,128.400 40.164 C 128.400 40.528,128.630 40.687,128.969 40.557 C 129.545 40.336,130.153 39.220,129.859 38.925 C 129.771 38.837,129.588 39.055,129.452 39.408 M270.012 39.071 C 270.001 39.514,271.054 40.800,271.429 40.800 C 271.523 40.800,271.600 40.519,271.600 40.176 C 271.600 39.833,271.431 39.657,271.225 39.785 C 271.018 39.912,270.664 39.698,270.437 39.308 C 270.210 38.919,270.019 38.812,270.012 39.071 M126.060 42.280 C 125.543 42.815,125.197 43.330,125.292 43.425 C 125.386 43.519,125.885 43.148,126.400 42.600 C 126.915 42.052,127.261 41.537,127.168 41.455 C 127.076 41.374,126.577 41.745,126.060 42.280 M272.800 41.512 C 272.800 41.704,273.250 42.283,273.800 42.800 C 274.350 43.317,274.800 43.610,274.800 43.452 C 274.800 43.293,274.350 42.714,273.800 42.164 C 273.250 41.614,272.800 41.320,272.800 41.512 M121.632 48.100 C 121.653 48.701,121.739 48.801,121.892 48.400 C 122.017 48.070,122.318 47.668,122.560 47.506 C 122.831 47.325,122.732 47.210,122.300 47.206 C 121.830 47.202,121.610 47.495,121.632 48.100 M277.440 47.506 C 277.682 47.668,277.983 48.070,278.108 48.400 C 278.261 48.801,278.347 48.701,278.368 48.100 C 278.390 47.495,278.170 47.202,277.700 47.206 C 277.268 47.210,277.169 47.325,277.440 47.506 M117.015 57.300 C 116.553 58.741,116.596 60.700,117.086 60.512 C 117.397 60.392,117.600 59.620,117.600 58.557 C 117.600 56.848,117.339 56.287,117.015 57.300 M282.400 58.477 C 282.400 59.589,282.600 60.391,282.906 60.509 C 283.277 60.651,283.373 60.262,283.265 59.051 C 283.054 56.679,282.400 56.245,282.400 58.477 M26.800 83.177 L 25.000 83.434 27.050 83.617 C 28.582 83.754,29.051 83.674,28.907 83.300 C 28.801 83.025,28.689 82.827,28.657 82.860 C 28.626 82.893,27.790 83.036,26.800 83.177 M371.051 83.412 C 370.952 83.668,371.451 83.776,372.345 83.691 C 374.895 83.450,375.046 83.346,373.105 83.169 C 371.999 83.067,371.144 83.169,371.051 83.412 M4.543 98.252 C 3.763 99.064,3.751 99.139,4.418 99.089 C 4.821 99.058,5.244 98.674,5.359 98.234 C 5.632 97.190,5.561 97.192,4.543 98.252 M394.570 97.733 C 394.696 98.136,394.800 98.592,394.800 98.748 C 394.800 98.903,395.205 99.058,395.700 99.093 C 396.479 99.148,396.508 99.104,395.913 98.765 C 395.535 98.550,395.026 98.065,394.783 97.687 C 394.375 97.055,394.358 97.059,394.570 97.733 M1.200 105.024 C 1.200 105.881,1.361 106.348,1.604 106.197 C 2.069 105.910,1.990 103.600,1.515 103.600 C 1.342 103.600,1.200 104.241,1.200 105.024 M398.081 104.774 C 398.032 105.419,398.173 106.060,398.396 106.197 C 398.639 106.348,398.800 105.881,398.800 105.024 C 398.800 103.314,398.208 103.108,398.081 104.774 M0.400 177.186 C 0.400 177.414,0.580 177.600,0.800 177.600 C 1.020 177.600,1.200 177.859,1.200 178.176 C 1.200 179.067,1.826 179.245,1.892 178.373 C 1.924 177.949,1.601 177.415,1.175 177.187 C 0.641 176.901,0.400 176.901,0.400 177.186 M398.788 177.207 C 398.465 177.407,398.180 177.932,398.155 178.375 C 398.130 178.817,398.265 179.083,398.455 178.966 C 398.645 178.849,398.800 178.508,398.800 178.210 C 398.800 177.911,399.025 177.586,399.300 177.488 C 399.575 177.390,399.705 177.205,399.588 177.077 C 399.472 176.948,399.112 177.007,398.788 177.207 M170.800 184.560 C 170.194 185.166,170.320 185.601,171.100 185.594 C 171.680 185.589,171.701 185.525,171.220 185.221 C 170.807 184.959,171.152 184.817,172.420 184.725 L 174.200 184.596 172.700 184.378 C 171.875 184.259,171.020 184.340,170.800 184.560 M227.200 184.426 C 225.814 184.692,225.817 184.695,227.600 184.753 C 228.922 184.797,229.241 184.915,228.800 185.200 C 228.287 185.531,228.302 185.589,228.900 185.594 C 229.285 185.597,229.600 185.442,229.600 185.249 C 229.600 184.525,228.554 184.167,227.200 184.426 M5.200 185.693 C 5.200 186.312,6.350 188.005,6.550 187.681 C 6.678 187.473,6.427 186.892,5.992 186.390 C 5.556 185.888,5.200 185.575,5.200 185.693 M393.909 186.489 C 393.536 186.949,393.332 187.491,393.457 187.692 C 393.582 187.894,393.938 187.569,394.249 186.970 C 394.955 185.610,394.800 185.391,393.909 186.489 M12.273 193.461 C 12.129 193.604,12.480 193.964,13.052 194.261 C 14.505 195.015,14.676 194.933,13.600 194.000 C 12.548 193.088,12.617 193.116,12.273 193.461 M386.390 194.008 C 385.316 194.940,385.499 195.013,386.984 194.242 C 387.576 193.935,387.889 193.579,387.681 193.450 C 387.473 193.322,386.892 193.573,386.390 194.008 M21.051 198.483 C 21.159 198.657,21.507 198.800,21.824 198.800 C 22.141 198.800,22.400 198.980,22.400 199.200 C 22.400 199.420,22.586 199.600,22.814 199.600 C 23.099 199.600,23.099 199.359,22.813 198.825 C 22.585 198.399,22.051 198.076,21.627 198.108 C 21.203 198.140,20.944 198.309,21.051 198.483 M377.187 198.825 C 376.901 199.359,376.901 199.600,377.186 199.600 C 377.414 199.600,377.600 199.420,377.600 199.200 C 377.600 198.980,377.859 198.800,378.176 198.800 C 379.067 198.800,379.245 198.174,378.373 198.108 C 377.949 198.076,377.415 198.399,377.187 198.825 M5.861 207.900 C 5.759 208.065,6.603 208.148,7.738 208.084 C 11.147 207.894,11.563 207.712,8.724 207.654 C 7.252 207.625,5.964 207.735,5.861 207.900 M389.400 207.839 C 391.241 208.138,394.311 208.178,394.139 207.900 C 394.036 207.735,392.748 207.625,391.276 207.654 C 389.804 207.684,388.960 207.767,389.400 207.839 M2.400 209.200 C 3.188 209.709,4.115 209.709,3.800 209.200 C 3.664 208.980,3.158 208.803,2.676 208.806 C 1.964 208.811,1.912 208.885,2.400 209.200 M396.200 209.200 C 395.885 209.709,396.812 209.709,397.600 209.200 C 398.088 208.885,398.036 208.811,397.324 208.806 C 396.842 208.803,396.336 208.980,396.200 209.200 M15.200 210.714 C 15.200 210.887,15.560 211.029,16.000 211.029 C 16.440 211.029,16.800 210.887,16.800 210.714 C 16.800 210.541,16.440 210.400,16.000 210.400 C 15.560 210.400,15.200 210.541,15.200 210.714 M383.200 210.714 C 383.200 210.887,383.560 211.029,384.000 211.029 C 384.440 211.029,384.800 210.887,384.800 210.714 C 384.800 210.541,384.440 210.400,384.000 210.400 C 383.560 210.400,383.200 210.541,383.200 210.714 M18.003 211.671 C 18.005 211.962,18.425 212.394,18.936 212.631 C 19.651 212.962,19.867 212.943,19.867 212.548 C 19.867 212.266,19.731 212.119,19.566 212.221 C 19.400 212.324,18.980 212.123,18.632 211.775 C 18.161 211.304,18.001 211.278,18.003 211.671 M381.276 211.824 C 380.988 212.150,380.613 212.332,380.443 212.226 C 380.273 212.121,380.133 212.266,380.133 212.548 C 380.133 212.943,380.349 212.962,381.064 212.631 C 381.575 212.394,381.995 211.975,381.997 211.700 C 382.001 211.075,381.926 211.088,381.276 211.824 M23.066 214.333 C 23.140 214.626,23.200 214.941,23.200 215.033 C 23.200 215.125,23.650 215.200,24.200 215.200 C 24.750 215.200,25.200 215.020,25.200 214.800 C 25.200 214.580,24.765 214.400,24.233 214.400 C 23.702 214.400,23.191 214.265,23.099 214.100 C 23.007 213.935,22.992 214.040,23.066 214.333 M376.800 213.933 C 376.800 214.190,376.350 214.400,375.800 214.400 C 375.250 214.400,374.800 214.580,374.800 214.800 C 374.800 215.470,376.697 215.245,376.967 214.543 C 377.105 214.181,377.125 213.791,377.009 213.676 C 376.894 213.561,376.800 213.677,376.800 213.933 M26.700 215.482 C 27.195 215.578,28.005 215.578,28.500 215.482 C 28.995 215.387,28.590 215.309,27.600 215.309 C 26.610 215.309,26.205 215.387,26.700 215.482 M371.500 215.482 C 371.995 215.578,372.805 215.578,373.300 215.482 C 373.795 215.387,373.390 215.309,372.400 215.309 C 371.410 215.309,371.005 215.387,371.500 215.482 M172.705 249.483 C 173.202 249.579,173.922 249.575,174.305 249.475 C 174.687 249.375,174.280 249.296,173.400 249.301 C 172.520 249.305,172.207 249.387,172.705 249.483 M225.905 249.483 C 226.402 249.579,227.122 249.575,227.505 249.475 C 227.887 249.375,227.480 249.296,226.600 249.301 C 225.720 249.305,225.407 249.387,225.905 249.483 M1.200 344.976 C 1.200 345.759,1.342 346.400,1.515 346.400 C 1.990 346.400,2.069 344.090,1.604 343.803 C 1.361 343.652,1.200 344.119,1.200 344.976 M398.225 343.960 C 397.907 344.474,398.114 346.400,398.487 346.400 C 398.659 346.400,398.800 345.770,398.800 345.000 C 398.800 343.591,398.636 343.295,398.225 343.960 M4.543 351.748 C 5.561 352.808,5.632 352.810,5.359 351.766 C 5.244 351.326,4.821 350.942,4.418 350.911 C 3.751 350.861,3.763 350.936,4.543 351.748 M394.641 351.766 C 394.368 352.810,394.439 352.808,395.457 351.748 C 396.237 350.936,396.249 350.861,395.582 350.911 C 395.179 350.942,394.756 351.326,394.641 351.766 M6.492 354.075 C 6.579 354.336,6.864 354.621,7.125 354.708 C 7.418 354.806,7.507 354.623,7.357 354.233 C 7.078 353.506,6.252 353.355,6.492 354.075 M392.643 354.233 C 392.493 354.623,392.582 354.806,392.875 354.708 C 393.473 354.509,393.802 353.600,393.276 353.600 C 393.061 353.600,392.776 353.885,392.643 354.233 M27.000 366.376 L 25.000 366.626 26.895 366.815 C 28.194 366.945,28.850 366.847,28.982 366.502 C 29.088 366.226,29.136 366.028,29.087 366.063 C 29.039 366.097,28.100 366.238,27.000 366.376 M371.051 366.588 C 371.144 366.831,371.999 366.933,373.105 366.831 C 375.046 366.654,374.895 366.550,372.345 366.309 C 371.451 366.224,370.952 366.332,371.051 366.588 " stroke="none" fill="#601c1c" fill-rule="evenodd"></path><path id="path2" d="M142.500 33.487 C 143.105 33.578,144.095 33.578,144.700 33.487 C 145.305 33.395,144.810 33.320,143.600 33.320 C 142.390 33.320,141.895 33.395,142.500 33.487 M255.300 33.487 C 255.905 33.578,256.895 33.578,257.500 33.487 C 258.105 33.395,257.610 33.320,256.400 33.320 C 255.190 33.320,254.695 33.395,255.300 33.487 M136.400 35.130 C 136.400 35.337,135.995 35.637,135.500 35.796 C 134.738 36.040,134.708 36.114,135.299 36.272 C 136.113 36.489,137.422 35.384,136.803 35.002 C 136.581 34.865,136.400 34.922,136.400 35.130 M263.092 35.042 C 262.666 35.468,263.956 36.469,264.701 36.291 C 265.327 36.141,265.317 36.089,264.600 35.791 C 264.160 35.608,263.698 35.308,263.573 35.123 C 263.448 34.939,263.231 34.902,263.092 35.042 M129.452 39.408 C 129.317 39.762,129.024 39.939,128.803 39.802 C 128.581 39.665,128.400 39.828,128.400 40.164 C 128.400 40.528,128.630 40.687,128.969 40.557 C 129.545 40.336,130.153 39.220,129.859 38.925 C 129.771 38.837,129.588 39.055,129.452 39.408 M270.012 39.071 C 270.001 39.514,271.054 40.800,271.429 40.800 C 271.523 40.800,271.600 40.519,271.600 40.176 C 271.600 39.833,271.431 39.657,271.225 39.785 C 271.018 39.912,270.664 39.698,270.437 39.308 C 270.210 38.919,270.019 38.812,270.012 39.071 M126.060 42.280 C 125.543 42.815,125.197 43.330,125.292 43.425 C 125.386 43.519,125.885 43.148,126.400 42.600 C 126.915 42.052,127.261 41.537,127.168 41.455 C 127.076 41.374,126.577 41.745,126.060 42.280 M272.800 41.512 C 272.800 41.704,273.250 42.283,273.800 42.800 C 274.350 43.317,274.800 43.610,274.800 43.452 C 274.800 43.293,274.350 42.714,273.800 42.164 C 273.250 41.614,272.800 41.320,272.800 41.512 M121.632 48.100 C 121.653 48.701,121.739 48.801,121.892 48.400 C 122.017 48.070,122.318 47.668,122.560 47.506 C 122.831 47.325,122.732 47.210,122.300 47.206 C 121.830 47.202,121.610 47.495,121.632 48.100 M277.440 47.506 C 277.682 47.668,277.983 48.070,278.108 48.400 C 278.261 48.801,278.347 48.701,278.368 48.100 C 278.390 47.495,278.170 47.202,277.700 47.206 C 277.268 47.210,277.169 47.325,277.440 47.506 M117.015 57.300 C 116.553 58.741,116.596 60.700,117.086 60.512 C 117.397 60.392,117.600 59.620,117.600 58.557 C 117.600 56.848,117.339 56.287,117.015 57.300 M282.400 58.477 C 282.400 59.589,282.600 60.391,282.906 60.509 C 283.277 60.651,283.373 60.262,283.265 59.051 C 283.054 56.679,282.400 56.245,282.400 58.477 M26.800 83.177 L 25.000 83.434 27.050 83.617 C 28.582 83.754,29.051 83.674,28.907 83.300 C 28.801 83.025,28.689 82.827,28.657 82.860 C 28.626 82.893,27.790 83.036,26.800 83.177 M371.051 83.412 C 370.952 83.668,371.451 83.776,372.345 83.691 C 374.895 83.450,375.046 83.346,373.105 83.169 C 371.999 83.067,371.144 83.169,371.051 83.412 M4.543 98.252 C 3.763 99.064,3.751 99.139,4.418 99.089 C 4.821 99.058,5.244 98.674,5.359 98.234 C 5.632 97.190,5.561 97.192,4.543 98.252 M394.570 97.733 C 394.696 98.136,394.800 98.592,394.800 98.748 C 394.800 98.903,395.205 99.058,395.700 99.093 C 396.479 99.148,396.508 99.104,395.913 98.765 C 395.535 98.550,395.026 98.065,394.783 97.687 C 394.375 97.055,394.358 97.059,394.570 97.733 M1.200 105.024 C 1.200 105.881,1.361 106.348,1.604 106.197 C 2.069 105.910,1.990 103.600,1.515 103.600 C 1.342 103.600,1.200 104.241,1.200 105.024 M398.081 104.774 C 398.032 105.419,398.173 106.060,398.396 106.197 C 398.639 106.348,398.800 105.881,398.800 105.024 C 398.800 103.314,398.208 103.108,398.081 104.774 M0.400 177.186 C 0.400 177.414,0.580 177.600,0.800 177.600 C 1.020 177.600,1.200 177.859,1.200 178.176 C 1.200 179.067,1.826 179.245,1.892 178.373 C 1.924 177.949,1.601 177.415,1.175 177.187 C 0.641 176.901,0.400 176.901,0.400 177.186 M398.788 177.207 C 398.465 177.407,398.180 177.932,398.155 178.375 C 398.130 178.817,398.265 179.083,398.455 178.966 C 398.645 178.849,398.800 178.508,398.800 178.210 C 398.800 177.911,399.025 177.586,399.300 177.488 C 399.575 177.390,399.705 177.205,399.588 177.077 C 399.472 176.948,399.112 177.007,398.788 177.207 M170.800 184.560 C 170.194 185.166,170.320 185.601,171.100 185.594 C 171.680 185.589,171.701 185.525,171.220 185.221 C 170.807 184.959,171.152 184.817,172.420 184.725 L 174.200 184.596 172.700 184.378 C 171.875 184.259,171.020 184.340,170.800 184.560 M227.200 184.426 C 225.814 184.692,225.817 184.695,227.600 184.753 C 228.922 184.797,229.241 184.915,228.800 185.200 C 228.287 185.531,228.302 185.589,228.900 185.594 C 229.285 185.597,229.600 185.442,229.600 185.249 C 229.600 184.525,228.554 184.167,227.200 184.426 M5.200 185.693 C 5.200 186.312,6.350 188.005,6.550 187.681 C 6.678 187.473,6.427 186.892,5.992 186.390 C 5.556 185.888,5.200 185.575,5.200 185.693 M393.909 186.489 C 393.536 186.949,393.332 187.491,393.457 187.692 C 393.582 187.894,393.938 187.569,394.249 186.970 C 394.955 185.610,394.800 185.391,393.909 186.489 M12.273 193.461 C 12.129 193.604,12.480 193.964,13.052 194.261 C 14.505 195.015,14.676 194.933,13.600 194.000 C 12.548 193.088,12.617 193.116,12.273 193.461 M386.390 194.008 C 385.316 194.940,385.499 195.013,386.984 194.242 C 387.576 193.935,387.889 193.579,387.681 193.450 C 387.473 193.322,386.892 193.573,386.390 194.008 M21.051 198.483 C 21.159 198.657,21.507 198.800,21.824 198.800 C 22.141 198.800,22.400 198.980,22.400 199.200 C 22.400 199.420,22.586 199.600,22.814 199.600 C 23.099 199.600,23.099 199.359,22.813 198.825 C 22.585 198.399,22.051 198.076,21.627 198.108 C 21.203 198.140,20.944 198.309,21.051 198.483 M377.187 198.825 C 376.901 199.359,376.901 199.600,377.186 199.600 C 377.414 199.600,377.600 199.420,377.600 199.200 C 377.600 198.980,377.859 198.800,378.176 198.800 C 379.067 198.800,379.245 198.174,378.373 198.108 C 377.949 198.076,377.415 198.399,377.187 198.825 M5.861 207.900 C 5.759 208.065,6.603 208.148,7.738 208.084 C 11.147 207.894,11.563 207.712,8.724 207.654 C 7.252 207.625,5.964 207.735,5.861 207.900 M389.400 207.839 C 391.241 208.138,394.311 208.178,394.139 207.900 C 394.036 207.735,392.748 207.625,391.276 207.654 C 389.804 207.684,388.960 207.767,389.400 207.839 M2.400 209.200 C 3.188 209.709,4.115 209.709,3.800 209.200 C 3.664 208.980,3.158 208.803,2.676 208.806 C 1.964 208.811,1.912 208.885,2.400 209.200 M396.200 209.200 C 395.885 209.709,396.812 209.709,397.600 209.200 C 398.088 208.885,398.036 208.811,397.324 208.806 C 396.842 208.803,396.336 208.980,396.200 209.200 M15.200 210.714 C 15.200 210.887,15.560 211.029,16.000 211.029 C 16.440 211.029,16.800 210.887,16.800 210.714 C 16.800 210.541,16.440 210.400,16.000 210.400 C 15.560 210.400,15.200 210.541,15.200 210.714 M383.200 210.714 C 383.200 210.887,383.560 211.029,384.000 211.029 C 384.440 211.029,384.800 210.887,384.800 210.714 C 384.800 210.541,384.440 210.400,384.000 210.400 C 383.560 210.400,383.200 210.541,383.200 210.714 M18.003 211.671 C 18.005 211.962,18.425 212.394,18.936 212.631 C 19.651 212.962,19.867 212.943,19.867 212.548 C 19.867 212.266,19.731 212.119,19.566 212.221 C 19.400 212.324,18.980 212.123,18.632 211.775 C 18.161 211.304,18.001 211.278,18.003 211.671 M381.276 211.824 C 380.988 212.150,380.613 212.332,380.443 212.226 C 380.273 212.121,380.133 212.266,380.133 212.548 C 380.133 212.943,380.349 212.962,381.064 212.631 C 381.575 212.394,381.995 211.975,381.997 211.700 C 382.001 211.075,381.926 211.088,381.276 211.824 M23.066 214.333 C 23.140 214.626,23.200 214.941,23.200 215.033 C 23.200 215.125,23.650 215.200,24.200 215.200 C 24.750 215.200,25.200 215.020,25.200 214.800 C 25.200 214.580,24.765 214.400,24.233 214.400 C 23.702 214.400,23.191 214.265,23.099 214.100 C 23.007 213.935,22.992 214.040,23.066 214.333 M376.800 213.933 C 376.800 214.190,376.350 214.400,375.800 214.400 C 375.250 214.400,374.800 214.580,374.800 214.800 C 374.800 215.470,376.697 215.245,376.967 214.543 C 377.105 214.181,377.125 213.791,377.009 213.676 C 376.894 213.561,376.800 213.677,376.800 213.933 M26.700 215.482 C 27.195 215.578,28.005 215.578,28.500 215.482 C 28.995 215.387,28.590 215.309,27.600 215.309 C 26.610 215.309,26.205 215.387,26.700 215.482 M371.500 215.482 C 371.995 215.578,372.805 215.578,373.300 215.482 C 373.795 215.387,373.390 215.309,372.400 215.309 C 371.410 215.309,371.005 215.387,371.500 215.482 M172.705 249.483 C 173.202 249.579,173.922 249.575,174.305 249.475 C 174.687 249.375,174.280 249.296,173.400 249.301 C 172.520 249.305,172.207 249.387,172.705 249.483 M225.905 249.483 C 226.402 249.579,227.122 249.575,227.505 249.475 C 227.887 249.375,227.480 249.296,226.600 249.301 C 225.720 249.305,225.407 249.387,225.905 249.483 M1.200 344.976 C 1.200 345.759,1.342 346.400,1.515 346.400 C 1.990 346.400,2.069 344.090,1.604 343.803 C 1.361 343.652,1.200 344.119,1.200 344.976 M398.225 343.960 C 397.907 344.474,398.114 346.400,398.487 346.400 C 398.659 346.400,398.800 345.770,398.800 345.000 C 398.800 343.591,398.636 343.295,398.225 343.960 M4.543 351.748 C 5.561 352.808,5.632 352.810,5.359 351.766 C 5.244 351.326,4.821 350.942,4.418 350.911 C 3.751 350.861,3.763 350.936,4.543 351.748 M394.641 351.766 C 394.368 352.810,394.439 352.808,395.457 351.748 C 396.237 350.936,396.249 350.861,395.582 350.911 C 395.179 350.942,394.756 351.326,394.641 351.766 M6.492 354.075 C 6.579 354.336,6.864 354.621,7.125 354.708 C 7.418 354.806,7.507 354.623,7.357 354.233 C 7.078 353.506,6.252 353.355,6.492 354.075 M392.643 354.233 C 392.493 354.623,392.582 354.806,392.875 354.708 C 393.473 354.509,393.802 353.600,393.276 353.600 C 393.061 353.600,392.776 353.885,392.643 354.233 M27.000 366.376 L 25.000 366.626 26.895 366.815 C 28.194 366.945,28.850 366.847,28.982 366.502 C 29.088 366.226,29.136 366.028,29.087 366.063 C 29.039 366.097,28.100 366.238,27.000 366.376 M371.051 366.588 C 371.144 366.831,371.999 366.933,373.105 366.831 C 375.046 366.654,374.895 366.550,372.345 366.309 C 371.451 366.224,370.952 366.332,371.051 366.588 " stroke="none" fill="#601c1c" fill-rule="evenodd"></path><path id="path3" d="M142.500 33.487 C 143.105 33.578,144.095 33.578,144.700 33.487 C 145.305 33.395,144.810 33.320,143.600 33.320 C 142.390 33.320,141.895 33.395,142.500 33.487 M255.300 33.487 C 255.905 33.578,256.895 33.578,257.500 33.487 C 258.105 33.395,257.610 33.320,256.400 33.320 C 255.190 33.320,254.695 33.395,255.300 33.487 M136.400 35.130 C 136.400 35.337,135.995 35.637,135.500 35.796 C 134.738 36.040,134.708 36.114,135.299 36.272 C 136.113 36.489,137.422 35.384,136.803 35.002 C 136.581 34.865,136.400 34.922,136.400 35.130 M263.092 35.042 C 262.666 35.468,263.956 36.469,264.701 36.291 C 265.327 36.141,265.317 36.089,264.600 35.791 C 264.160 35.608,263.698 35.308,263.573 35.123 C 263.448 34.939,263.231 34.902,263.092 35.042 M129.452 39.408 C 129.317 39.762,129.024 39.939,128.803 39.802 C 128.581 39.665,128.400 39.828,128.400 40.164 C 128.400 40.528,128.630 40.687,128.969 40.557 C 129.545 40.336,130.153 39.220,129.859 38.925 C 129.771 38.837,129.588 39.055,129.452 39.408 M270.012 39.071 C 270.001 39.514,271.054 40.800,271.429 40.800 C 271.523 40.800,271.600 40.519,271.600 40.176 C 271.600 39.833,271.431 39.657,271.225 39.785 C 271.018 39.912,270.664 39.698,270.437 39.308 C 270.210 38.919,270.019 38.812,270.012 39.071 M126.060 42.280 C 125.543 42.815,125.197 43.330,125.292 43.425 C 125.386 43.519,125.885 43.148,126.400 42.600 C 126.915 42.052,127.261 41.537,127.168 41.455 C 127.076 41.374,126.577 41.745,126.060 42.280 M272.800 41.512 C 272.800 41.704,273.250 42.283,273.800 42.800 C 274.350 43.317,274.800 43.610,274.800 43.452 C 274.800 43.293,274.350 42.714,273.800 42.164 C 273.250 41.614,272.800 41.320,272.800 41.512 M121.632 48.100 C 121.653 48.701,121.739 48.801,121.892 48.400 C 122.017 48.070,122.318 47.668,122.560 47.506 C 122.831 47.325,122.732 47.210,122.300 47.206 C 121.830 47.202,121.610 47.495,121.632 48.100 M277.440 47.506 C 277.682 47.668,277.983 48.070,278.108 48.400 C 278.261 48.801,278.347 48.701,278.368 48.100 C 278.390 47.495,278.170 47.202,277.700 47.206 C 277.268 47.210,277.169 47.325,277.440 47.506 M117.015 57.300 C 116.553 58.741,116.596 60.700,117.086 60.512 C 117.397 60.392,117.600 59.620,117.600 58.557 C 117.600 56.848,117.339 56.287,117.015 57.300 M282.400 58.477 C 282.400 59.589,282.600 60.391,282.906 60.509 C 283.277 60.651,283.373 60.262,283.265 59.051 C 283.054 56.679,282.400 56.245,282.400 58.477 M26.800 83.177 L 25.000 83.434 27.050 83.617 C 28.582 83.754,29.051 83.674,28.907 83.300 C 28.801 83.025,28.689 82.827,28.657 82.860 C 28.626 82.893,27.790 83.036,26.800 83.177 M371.051 83.412 C 370.952 83.668,371.451 83.776,372.345 83.691 C 374.895 83.450,375.046 83.346,373.105 83.169 C 371.999 83.067,371.144 83.169,371.051 83.412 M4.543 98.252 C 3.763 99.064,3.751 99.139,4.418 99.089 C 4.821 99.058,5.244 98.674,5.359 98.234 C 5.632 97.190,5.561 97.192,4.543 98.252 M394.570 97.733 C 394.696 98.136,394.800 98.592,394.800 98.748 C 394.800 98.903,395.205 99.058,395.700 99.093 C 396.479 99.148,396.508 99.104,395.913 98.765 C 395.535 98.550,395.026 98.065,394.783 97.687 C 394.375 97.055,394.358 97.059,394.570 97.733 M1.200 105.024 C 1.200 105.881,1.361 106.348,1.604 106.197 C 2.069 105.910,1.990 103.600,1.515 103.600 C 1.342 103.600,1.200 104.241,1.200 105.024 M398.081 104.774 C 398.032 105.419,398.173 106.060,398.396 106.197 C 398.639 106.348,398.800 105.881,398.800 105.024 C 398.800 103.314,398.208 103.108,398.081 104.774 M0.400 177.186 C 0.400 177.414,0.580 177.600,0.800 177.600 C 1.020 177.600,1.200 177.859,1.200 178.176 C 1.200 179.067,1.826 179.245,1.892 178.373 C 1.924 177.949,1.601 177.415,1.175 177.187 C 0.641 176.901,0.400 176.901,0.400 177.186 M398.788 177.207 C 398.465 177.407,398.180 177.932,398.155 178.375 C 398.130 178.817,398.265 179.083,398.455 178.966 C 398.645 178.849,398.800 178.508,398.800 178.210 C 398.800 177.911,399.025 177.586,399.300 177.488 C 399.575 177.390,399.705 177.205,399.588 177.077 C 399.472 176.948,399.112 177.007,398.788 177.207 M170.800 184.560 C 170.194 185.166,170.320 185.601,171.100 185.594 C 171.680 185.589,171.701 185.525,171.220 185.221 C 170.807 184.959,171.152 184.817,172.420 184.725 L 174.200 184.596 172.700 184.378 C 171.875 184.259,171.020 184.340,170.800 184.560 M227.200 184.426 C 225.814 184.692,225.817 184.695,227.600 184.753 C 228.922 184.797,229.241 184.915,228.800 185.200 C 228.287 185.531,228.302 185.589,228.900 185.594 C 229.285 185.597,229.600 185.442,229.600 185.249 C 229.600 184.525,228.554 184.167,227.200 184.426 M5.200 185.693 C 5.200 186.312,6.350 188.005,6.550 187.681 C 6.678 187.473,6.427 186.892,5.992 186.390 C 5.556 185.888,5.200 185.575,5.200 185.693 M393.909 186.489 C 393.536 186.949,393.332 187.491,393.457 187.692 C 393.582 187.894,393.938 187.569,394.249 186.970 C 394.955 185.610,394.800 185.391,393.909 186.489 M12.273 193.461 C 12.129 193.604,12.480 193.964,13.052 194.261 C 14.505 195.015,14.676 194.933,13.600 194.000 C 12.548 193.088,12.617 193.116,12.273 193.461 M386.390 194.008 C 385.316 194.940,385.499 195.013,386.984 194.242 C 387.576 193.935,387.889 193.579,387.681 193.450 C 387.473 193.322,386.892 193.573,386.390 194.008 M21.051 198.483 C 21.159 198.657,21.507 198.800,21.824 198.800 C 22.141 198.800,22.400 198.980,22.400 199.200 C 22.400 199.420,22.586 199.600,22.814 199.600 C 23.099 199.600,23.099 199.359,22.813 198.825 C 22.585 198.399,22.051 198.076,21.627 198.108 C 21.203 198.140,20.944 198.309,21.051 198.483 M377.187 198.825 C 376.901 199.359,376.901 199.600,377.186 199.600 C 377.414 199.600,377.600 199.420,377.600 199.200 C 377.600 198.980,377.859 198.800,378.176 198.800 C 379.067 198.800,379.245 198.174,378.373 198.108 C 377.949 198.076,377.415 198.399,377.187 198.825 M5.861 207.900 C 5.759 208.065,6.603 208.148,7.738 208.084 C 11.147 207.894,11.563 207.712,8.724 207.654 C 7.252 207.625,5.964 207.735,5.861 207.900 M389.400 207.839 C 391.241 208.138,394.311 208.178,394.139 207.900 C 394.036 207.735,392.748 207.625,391.276 207.654 C 389.804 207.684,388.960 207.767,389.400 207.839 M2.400 209.200 C 3.188 209.709,4.115 209.709,3.800 209.200 C 3.664 208.980,3.158 208.803,2.676 208.806 C 1.964 208.811,1.912 208.885,2.400 209.200 M396.200 209.200 C 395.885 209.709,396.812 209.709,397.600 209.200 C 398.088 208.885,398.036 208.811,397.324 208.806 C 396.842 208.803,396.336 208.980,396.200 209.200 M15.200 210.714 C 15.200 210.887,15.560 211.029,16.000 211.029 C 16.440 211.029,16.800 210.887,16.800 210.714 C 16.800 210.541,16.440 210.400,16.000 210.400 C 15.560 210.400,15.200 210.541,15.200 210.714 M383.200 210.714 C 383.200 210.887,383.560 211.029,384.000 211.029 C 384.440 211.029,384.800 210.887,384.800 210.714 C 384.800 210.541,384.440 210.400,384.000 210.400 C 383.560 210.400,383.200 210.541,383.200 210.714 M18.003 211.671 C 18.005 211.962,18.425 212.394,18.936 212.631 C 19.651 212.962,19.867 212.943,19.867 212.548 C 19.867 212.266,19.731 212.119,19.566 212.221 C 19.400 212.324,18.980 212.123,18.632 211.775 C 18.161 211.304,18.001 211.278,18.003 211.671 M381.276 211.824 C 380.988 212.150,380.613 212.332,380.443 212.226 C 380.273 212.121,380.133 212.266,380.133 212.548 C 380.133 212.943,380.349 212.962,381.064 212.631 C 381.575 212.394,381.995 211.975,381.997 211.700 C 382.001 211.075,381.926 211.088,381.276 211.824 M23.066 214.333 C 23.140 214.626,23.200 214.941,23.200 215.033 C 23.200 215.125,23.650 215.200,24.200 215.200 C 24.750 215.200,25.200 215.020,25.200 214.800 C 25.200 214.580,24.765 214.400,24.233 214.400 C 23.702 214.400,23.191 214.265,23.099 214.100 C 23.007 213.935,22.992 214.040,23.066 214.333 M376.800 213.933 C 376.800 214.190,376.350 214.400,375.800 214.400 C 375.250 214.400,374.800 214.580,374.800 214.800 C 374.800 215.470,376.697 215.245,376.967 214.543 C 377.105 214.181,377.125 213.791,377.009 213.676 C 376.894 213.561,376.800 213.677,376.800 213.933 M26.700 215.482 C 27.195 215.578,28.005 215.578,28.500 215.482 C 28.995 215.387,28.590 215.309,27.600 215.309 C 26.610 215.309,26.205 215.387,26.700 215.482 M371.500 215.482 C 371.995 215.578,372.805 215.578,373.300 215.482 C 373.795 215.387,373.390 215.309,372.400 215.309 C 371.410 215.309,371.005 215.387,371.500 215.482 M172.705 249.483 C 173.202 249.579,173.922 249.575,174.305 249.475 C 174.687 249.375,174.280 249.296,173.400 249.301 C 172.520 249.305,172.207 249.387,172.705 249.483 M225.905 249.483 C 226.402 249.579,227.122 249.575,227.505 249.475 C 227.887 249.375,227.480 249.296,226.600 249.301 C 225.720 249.305,225.407 249.387,225.905 249.483 M1.200 344.976 C 1.200 345.759,1.342 346.400,1.515 346.400 C 1.990 346.400,2.069 344.090,1.604 343.803 C 1.361 343.652,1.200 344.119,1.200 344.976 M398.225 343.960 C 397.907 344.474,398.114 346.400,398.487 346.400 C 398.659 346.400,398.800 345.770,398.800 345.000 C 398.800 343.591,398.636 343.295,398.225 343.960 M4.543 351.748 C 5.561 352.808,5.632 352.810,5.359 351.766 C 5.244 351.326,4.821 350.942,4.418 350.911 C 3.751 350.861,3.763 350.936,4.543 351.748 M394.641 351.766 C 394.368 352.810,394.439 352.808,395.457 351.748 C 396.237 350.936,396.249 350.861,395.582 350.911 C 395.179 350.942,394.756 351.326,394.641 351.766 M6.492 354.075 C 6.579 354.336,6.864 354.621,7.125 354.708 C 7.418 354.806,7.507 354.623,7.357 354.233 C 7.078 353.506,6.252 353.355,6.492 354.075 M392.643 354.233 C 392.493 354.623,392.582 354.806,392.875 354.708 C 393.473 354.509,393.802 353.600,393.276 353.600 C 393.061 353.600,392.776 353.885,392.643 354.233 M27.000 366.376 L 25.000 366.626 26.895 366.815 C 28.194 366.945,28.850 366.847,28.982 366.502 C 29.088 366.226,29.136 366.028,29.087 366.063 C 29.039 366.097,28.100 366.238,27.000 366.376 M371.051 366.588 C 371.144 366.831,371.999 366.933,373.105 366.831 C 375.046 366.654,374.895 366.550,372.345 366.309 C 371.451 366.224,370.952 366.332,371.051 366.588 " stroke="none" fill="#601c1c" fill-rule="evenodd"></path><path id="path4" d="M142.500 33.487 C 143.105 33.578,144.095 33.578,144.700 33.487 C 145.305 33.395,144.810 33.320,143.600 33.320 C 142.390 33.320,141.895 33.395,142.500 33.487 M255.300 33.487 C 255.905 33.578,256.895 33.578,257.500 33.487 C 258.105 33.395,257.610 33.320,256.400 33.320 C 255.190 33.320,254.695 33.395,255.300 33.487 M136.400 35.130 C 136.400 35.337,135.995 35.637,135.500 35.796 C 134.738 36.040,134.708 36.114,135.299 36.272 C 136.113 36.489,137.422 35.384,136.803 35.002 C 136.581 34.865,136.400 34.922,136.400 35.130 M263.092 35.042 C 262.666 35.468,263.956 36.469,264.701 36.291 C 265.327 36.141,265.317 36.089,264.600 35.791 C 264.160 35.608,263.698 35.308,263.573 35.123 C 263.448 34.939,263.231 34.902,263.092 35.042 M129.452 39.408 C 129.317 39.762,129.024 39.939,128.803 39.802 C 128.581 39.665,128.400 39.828,128.400 40.164 C 128.400 40.528,128.630 40.687,128.969 40.557 C 129.545 40.336,130.153 39.220,129.859 38.925 C 129.771 38.837,129.588 39.055,129.452 39.408 M270.012 39.071 C 270.001 39.514,271.054 40.800,271.429 40.800 C 271.523 40.800,271.600 40.519,271.600 40.176 C 271.600 39.833,271.431 39.657,271.225 39.785 C 271.018 39.912,270.664 39.698,270.437 39.308 C 270.210 38.919,270.019 38.812,270.012 39.071 M126.060 42.280 C 125.543 42.815,125.197 43.330,125.292 43.425 C 125.386 43.519,125.885 43.148,126.400 42.600 C 126.915 42.052,127.261 41.537,127.168 41.455 C 127.076 41.374,126.577 41.745,126.060 42.280 M272.800 41.512 C 272.800 41.704,273.250 42.283,273.800 42.800 C 274.350 43.317,274.800 43.610,274.800 43.452 C 274.800 43.293,274.350 42.714,273.800 42.164 C 273.250 41.614,272.800 41.320,272.800 41.512 M121.632 48.100 C 121.653 48.701,121.739 48.801,121.892 48.400 C 122.017 48.070,122.318 47.668,122.560 47.506 C 122.831 47.325,122.732 47.210,122.300 47.206 C 121.830 47.202,121.610 47.495,121.632 48.100 M277.440 47.506 C 277.682 47.668,277.983 48.070,278.108 48.400 C 278.261 48.801,278.347 48.701,278.368 48.100 C 278.390 47.495,278.170 47.202,277.700 47.206 C 277.268 47.210,277.169 47.325,277.440 47.506 M117.015 57.300 C 116.553 58.741,116.596 60.700,117.086 60.512 C 117.397 60.392,117.600 59.620,117.600 58.557 C 117.600 56.848,117.339 56.287,117.015 57.300 M282.400 58.477 C 282.400 59.589,282.600 60.391,282.906 60.509 C 283.277 60.651,283.373 60.262,283.265 59.051 C 283.054 56.679,282.400 56.245,282.400 58.477 M26.800 83.177 L 25.000 83.434 27.050 83.617 C 28.582 83.754,29.051 83.674,28.907 83.300 C 28.801 83.025,28.689 82.827,28.657 82.860 C 28.626 82.893,27.790 83.036,26.800 83.177 M371.051 83.412 C 370.952 83.668,371.451 83.776,372.345 83.691 C 374.895 83.450,375.046 83.346,373.105 83.169 C 371.999 83.067,371.144 83.169,371.051 83.412 M4.543 98.252 C 3.763 99.064,3.751 99.139,4.418 99.089 C 4.821 99.058,5.244 98.674,5.359 98.234 C 5.632 97.190,5.561 97.192,4.543 98.252 M394.570 97.733 C 394.696 98.136,394.800 98.592,394.800 98.748 C 394.800 98.903,395.205 99.058,395.700 99.093 C 396.479 99.148,396.508 99.104,395.913 98.765 C 395.535 98.550,395.026 98.065,394.783 97.687 C 394.375 97.055,394.358 97.059,394.570 97.733 M1.200 105.024 C 1.200 105.881,1.361 106.348,1.604 106.197 C 2.069 105.910,1.990 103.600,1.515 103.600 C 1.342 103.600,1.200 104.241,1.200 105.024 M398.081 104.774 C 398.032 105.419,398.173 106.060,398.396 106.197 C 398.639 106.348,398.800 105.881,398.800 105.024 C 398.800 103.314,398.208 103.108,398.081 104.774 M0.400 177.186 C 0.400 177.414,0.580 177.600,0.800 177.600 C 1.020 177.600,1.200 177.859,1.200 178.176 C 1.200 179.067,1.826 179.245,1.892 178.373 C 1.924 177.949,1.601 177.415,1.175 177.187 C 0.641 176.901,0.400 176.901,0.400 177.186 M398.788 177.207 C 398.465 177.407,398.180 177.932,398.155 178.375 C 398.130 178.817,398.265 179.083,398.455 178.966 C 398.645 178.849,398.800 178.508,398.800 178.210 C 398.800 177.911,399.025 177.586,399.300 177.488 C 399.575 177.390,399.705 177.205,399.588 177.077 C 399.472 176.948,399.112 177.007,398.788 177.207 M170.800 184.560 C 170.194 185.166,170.320 185.601,171.100 185.594 C 171.680 185.589,171.701 185.525,171.220 185.221 C 170.807 184.959,171.152 184.817,172.420 184.725 L 174.200 184.596 172.700 184.378 C 171.875 184.259,171.020 184.340,170.800 184.560 M227.200 184.426 C 225.814 184.692,225.817 184.695,227.600 184.753 C 228.922 184.797,229.241 184.915,228.800 185.200 C 228.287 185.531,228.302 185.589,228.900 185.594 C 229.285 185.597,229.600 185.442,229.600 185.249 C 229.600 184.525,228.554 184.167,227.200 184.426 M5.200 185.693 C 5.200 186.312,6.350 188.005,6.550 187.681 C 6.678 187.473,6.427 186.892,5.992 186.390 C 5.556 185.888,5.200 185.575,5.200 185.693 M393.909 186.489 C 393.536 186.949,393.332 187.491,393.457 187.692 C 393.582 187.894,393.938 187.569,394.249 186.970 C 394.955 185.610,394.800 185.391,393.909 186.489 M12.273 193.461 C 12.129 193.604,12.480 193.964,13.052 194.261 C 14.505 195.015,14.676 194.933,13.600 194.000 C 12.548 193.088,12.617 193.116,12.273 193.461 M386.390 194.008 C 385.316 194.940,385.499 195.013,386.984 194.242 C 387.576 193.935,387.889 193.579,387.681 193.450 C 387.473 193.322,386.892 193.573,386.390 194.008 M21.051 198.483 C 21.159 198.657,21.507 198.800,21.824 198.800 C 22.141 198.800,22.400 198.980,22.400 199.200 C 22.400 199.420,22.586 199.600,22.814 199.600 C 23.099 199.600,23.099 199.359,22.813 198.825 C 22.585 198.399,22.051 198.076,21.627 198.108 C 21.203 198.140,20.944 198.309,21.051 198.483 M377.187 198.825 C 376.901 199.359,376.901 199.600,377.186 199.600 C 377.414 199.600,377.600 199.420,377.600 199.200 C 377.600 198.980,377.859 198.800,378.176 198.800 C 379.067 198.800,379.245 198.174,378.373 198.108 C 377.949 198.076,377.415 198.399,377.187 198.825 M5.861 207.900 C 5.759 208.065,6.603 208.148,7.738 208.084 C 11.147 207.894,11.563 207.712,8.724 207.654 C 7.252 207.625,5.964 207.735,5.861 207.900 M389.400 207.839 C 391.241 208.138,394.311 208.178,394.139 207.900 C 394.036 207.735,392.748 207.625,391.276 207.654 C 389.804 207.684,388.960 207.767,389.400 207.839 M2.400 209.200 C 3.188 209.709,4.115 209.709,3.800 209.200 C 3.664 208.980,3.158 208.803,2.676 208.806 C 1.964 208.811,1.912 208.885,2.400 209.200 M396.200 209.200 C 395.885 209.709,396.812 209.709,397.600 209.200 C 398.088 208.885,398.036 208.811,397.324 208.806 C 396.842 208.803,396.336 208.980,396.200 209.200 M15.200 210.714 C 15.200 210.887,15.560 211.029,16.000 211.029 C 16.440 211.029,16.800 210.887,16.800 210.714 C 16.800 210.541,16.440 210.400,16.000 210.400 C 15.560 210.400,15.200 210.541,15.200 210.714 M383.200 210.714 C 383.200 210.887,383.560 211.029,384.000 211.029 C 384.440 211.029,384.800 210.887,384.800 210.714 C 384.800 210.541,384.440 210.400,384.000 210.400 C 383.560 210.400,383.200 210.541,383.200 210.714 M18.003 211.671 C 18.005 211.962,18.425 212.394,18.936 212.631 C 19.651 212.962,19.867 212.943,19.867 212.548 C 19.867 212.266,19.731 212.119,19.566 212.221 C 19.400 212.324,18.980 212.123,18.632 211.775 C 18.161 211.304,18.001 211.278,18.003 211.671 M381.276 211.824 C 380.988 212.150,380.613 212.332,380.443 212.226 C 380.273 212.121,380.133 212.266,380.133 212.548 C 380.133 212.943,380.349 212.962,381.064 212.631 C 381.575 212.394,381.995 211.975,381.997 211.700 C 382.001 211.075,381.926 211.088,381.276 211.824 M23.066 214.333 C 23.140 214.626,23.200 214.941,23.200 215.033 C 23.200 215.125,23.650 215.200,24.200 215.200 C 24.750 215.200,25.200 215.020,25.200 214.800 C 25.200 214.580,24.765 214.400,24.233 214.400 C 23.702 214.400,23.191 214.265,23.099 214.100 C 23.007 213.935,22.992 214.040,23.066 214.333 M376.800 213.933 C 376.800 214.190,376.350 214.400,375.800 214.400 C 375.250 214.400,374.800 214.580,374.800 214.800 C 374.800 215.470,376.697 215.245,376.967 214.543 C 377.105 214.181,377.125 213.791,377.009 213.676 C 376.894 213.561,376.800 213.677,376.800 213.933 M26.700 215.482 C 27.195 215.578,28.005 215.578,28.500 215.482 C 28.995 215.387,28.590 215.309,27.600 215.309 C 26.610 215.309,26.205 215.387,26.700 215.482 M371.500 215.482 C 371.995 215.578,372.805 215.578,373.300 215.482 C 373.795 215.387,373.390 215.309,372.400 215.309 C 371.410 215.309,371.005 215.387,371.500 215.482 M172.705 249.483 C 173.202 249.579,173.922 249.575,174.305 249.475 C 174.687 249.375,174.280 249.296,173.400 249.301 C 172.520 249.305,172.207 249.387,172.705 249.483 M225.905 249.483 C 226.402 249.579,227.122 249.575,227.505 249.475 C 227.887 249.375,227.480 249.296,226.600 249.301 C 225.720 249.305,225.407 249.387,225.905 249.483 M1.200 344.976 C 1.200 345.759,1.342 346.400,1.515 346.400 C 1.990 346.400,2.069 344.090,1.604 343.803 C 1.361 343.652,1.200 344.119,1.200 344.976 M398.225 343.960 C 397.907 344.474,398.114 346.400,398.487 346.400 C 398.659 346.400,398.800 345.770,398.800 345.000 C 398.800 343.591,398.636 343.295,398.225 343.960 M4.543 351.748 C 5.561 352.808,5.632 352.810,5.359 351.766 C 5.244 351.326,4.821 350.942,4.418 350.911 C 3.751 350.861,3.763 350.936,4.543 351.748 M394.641 351.766 C 394.368 352.810,394.439 352.808,395.457 351.748 C 396.237 350.936,396.249 350.861,395.582 350.911 C 395.179 350.942,394.756 351.326,394.641 351.766 M6.492 354.075 C 6.579 354.336,6.864 354.621,7.125 354.708 C 7.418 354.806,7.507 354.623,7.357 354.233 C 7.078 353.506,6.252 353.355,6.492 354.075 M392.643 354.233 C 392.493 354.623,392.582 354.806,392.875 354.708 C 393.473 354.509,393.802 353.600,393.276 353.600 C 393.061 353.600,392.776 353.885,392.643 354.233 M27.000 366.376 L 25.000 366.626 26.895 366.815 C 28.194 366.945,28.850 366.847,28.982 366.502 C 29.088 366.226,29.136 366.028,29.087 366.063 C 29.039 366.097,28.100 366.238,27.000 366.376 M371.051 366.588 C 371.144 366.831,371.999 366.933,373.105 366.831 C 375.046 366.654,374.895 366.550,372.345 366.309 C 371.451 366.224,370.952 366.332,371.051 366.588 " stroke="none" fill="#601c1c" fill-rule="evenodd"></path></g></svg>