<?xml version="1.0" encoding="UTF-8"?>
<!DOCTYPE svg PUBLIC "-//W3C//DTD SVG 1.1//EN" "http://www.w3.org/Graphics/SVG/1.1/DTD/svg11.dtd">
<svg xmlns="http://www.w3.org/2000/svg" version="1.1" width="512px" height="512px" style="shape-rendering:geometricPrecision; text-rendering:geometricPrecision; image-rendering:optimizeQuality; fill-rule:evenodd; clip-rule:evenodd" xmlns:xlink="http://www.w3.org/1999/xlink">
<g><path style="opacity:1" fill="#f9f8f3" d="M 364.5,15.5 C 373.762,13.4392 381.262,16.1059 387,23.5C 390.936,36.9879 396.603,49.6545 404,61.5C 408.673,67.0766 414.173,71.5766 420.5,75C 430.5,79 440.5,83 450.5,87C 461.287,97.718 460.954,108.051 449.5,118C 438.593,121.747 427.926,126.08 417.5,131C 407.292,137.895 399.792,147.061 395,158.5C 392.727,165.986 390.06,173.32 387,180.5C 377.078,192.094 366.745,192.427 356,181.5C 352,171.5 348,161.5 344,151.5C 337.27,139.439 327.437,130.939 314.5,126C 307.167,123.333 299.833,120.667 292.5,118C 281.504,107.802 281.171,97.4691 291.5,87C 302.247,82.8622 312.914,78.5289 323.5,74C 333.488,67.6796 340.988,59.1796 346,48.5C 348.941,39.6766 352.274,31.0099 356,22.5C 358.441,19.5464 361.275,17.2131 364.5,15.5 Z M 370.5,72.5 C 378.686,84.5181 389.02,94.3515 401.5,102C 388.667,109.5 378.5,119.667 371,132.5C 363.547,120.046 353.713,109.88 341.5,102C 353.378,94.2895 363.044,84.4561 370.5,72.5 Z"/></g>
<g><path style="opacity:1" fill="#f9f8f3" d="M 204.5,99.5 C 212.784,98.5376 219.617,101.204 225,107.5C 232.187,125.388 239.187,143.388 246,161.5C 259.221,187.054 278.721,206.221 304.5,219C 321.833,225.667 339.167,232.333 356.5,239C 367.167,250 367.167,261 356.5,272C 337.087,279.471 317.754,287.137 298.5,295C 275.563,307.937 258.063,326.104 246,349.5C 239.273,366.345 232.94,383.345 227,400.5C 219.899,411.199 210.399,414.033 198.5,409C 195.333,407.167 192.833,404.667 191,401.5C 184.611,383.723 177.944,366.057 171,348.5C 156.733,322.094 135.9,302.594 108.5,290C 93.1667,284.333 77.8333,278.667 62.5,273C 49.1667,261.333 49.1667,249.667 62.5,238C 82.9781,231.174 102.978,223.174 122.5,214C 143.09,201.074 159.257,183.908 171,162.5C 178.256,145.067 184.923,127.4 191,109.5C 194.404,104.561 198.904,101.228 204.5,99.5 Z M 208.5,158.5 C 226.431,205.098 258.765,237.431 305.5,255.5C 258.783,273.384 226.616,305.717 209,352.5C 191.384,305.717 159.217,273.384 112.5,255.5C 159.272,237.728 191.272,205.395 208.5,158.5 Z"/></g>
<g><path style="opacity:1" fill="#f9f8f3" d="M 368.5,321.5 C 376.353,321.166 382.52,324.166 387,330.5C 390.747,341.407 395.08,352.074 400,362.5C 406.208,372.358 414.708,379.525 425.5,384C 433.578,386.803 441.578,389.803 449.5,393C 460.954,402.949 461.287,413.282 450.5,424C 441.99,427.726 433.323,431.059 424.5,434C 414.867,438.297 407.034,444.797 401,453.5C 395.552,464.511 390.885,475.844 387,487.5C 381.257,495.058 373.757,497.558 364.5,495C 361.098,493.6 358.264,491.433 356,488.5C 351.862,477.753 347.529,467.086 343,456.5C 336.68,446.512 328.18,439.012 317.5,434C 308.677,431.059 300.01,427.726 291.5,424C 280.63,413.37 280.963,403.036 292.5,393C 303.407,389.253 314.074,384.92 324.5,380C 333.434,374.4 340.268,366.9 345,357.5C 348.53,348.577 351.863,339.577 355,330.5C 358.528,325.834 363.028,322.834 368.5,321.5 Z M 370.5,378.5 C 378.309,391.141 388.642,401.308 401.5,409C 389.046,416.453 378.88,426.287 371,438.5C 363.167,426.667 353.333,416.833 341.5,409C 353.783,401.22 363.45,391.053 370.5,378.5 Z"/></g>
</svg>
