<svg width="82" height="61" viewBox="0 0 82 61" fill="none" xmlns="http://www.w3.org/2000/svg">
<path d="M20.8754 51.6845L1 57.1238L6.56512 37.6977L42.9592 2.29886C43.3704 1.88769 43.862 1.56099 44.404 1.33794C44.9463 1.1149 45.5289 1 46.1172 1C46.7055 1 47.2881 1.1149 47.8305 1.33794C48.3724 1.56099 48.864 1.88769 49.2752 2.29886L57.0929 9.98299C57.5067 10.3843 57.8353 10.8618 58.0597 11.3878C58.2841 11.9139 58.3994 12.4781 58.3994 13.048C58.3994 13.6179 58.2841 14.1822 58.0597 14.7082C57.8353 15.2343 57.5067 15.7117 57.0929 16.113L20.8754 51.6845Z" fill="white" stroke="white" stroke-width="1.27554" stroke-linecap="round" stroke-linejoin="round"/>
<path d="M2.57587 57.1034L25.1681 59.1546L35.7417 56.8888L48.3197 57.798L59.1551 56.8888L70.4839 59.1546L81.8128 59.9099" stroke="white" stroke-width="1.51051"/>
</svg>
